<?xml version="1.0" encoding="utf-8"?>
<!-- Generator: Adobe Illustrator 23.0.6, SVG Export Plug-In . SVG Version: 6.00 Build 0)  -->
<svg version="1.1" id="Layer_1" xmlns="http://www.w3.org/2000/svg" xmlns:xlink="http://www.w3.org/1999/xlink" x="0px" y="0px"
	 viewBox="0 0 326.81 328.85" style="enable-background:new 0 0 326.81 328.85;" xml:space="preserve">
<style type="text/css">
	.st0{fill:#FFFFFF;stroke:#000000;stroke-width:5;stroke-miterlimit:10;}
	.st1{fill:none;stroke:#000000;stroke-width:5;stroke-linecap:round;stroke-miterlimit:10;}
</style>
<ellipse transform="matrix(0.2668 -0.9637 0.9637 0.2668 -140.5734 235.5863)" class="st0" cx="84.55" cy="210.18" rx="102.02" ry="68.17"/>
<path class="st0" d="M294.51,230.09c-11.58,57.67-52.79,98.03-92.05,90.14c-39.26-7.88-61.7-61.02-50.12-118.69
	S206.47,86.95,256.66,98.56C295.67,107.58,306.09,172.42,294.51,230.09z"/>
<path d="M71.03,244.71C47.17,244.8,28.02,264.63,28.26,289c0,0.29,0.02,0.58,0.03,0.87c9.09,11.42,20.68,18.97,33.93,20.92
	c18.93,2.78,37.61-6.4,52.4-23.42C113.71,263.61,94.46,244.62,71.03,244.71z"/>
<path d="M214.93,246.87c-24.48-3.71-47.36,12.61-52.03,36.69c6.86,16.31,18.18,28.59,33.28,34.07c17.54,6.37,37.06,2.44,54.95-9.16
	c1.09-2.93,1.91-6.02,2.39-9.23C257.33,274.13,240.05,250.68,214.93,246.87z"/>
<path class="st1" d="M52.27,132.49c0,0-37.36-36.53-16.36-91.53"/>
<path class="st1" d="M84.55,112.36c0,0-14.64-48.4,19.36-81.4"/>
<path class="st1" d="M123.86,117.15c0,0,9.05-42.19,47.05-63.19"/>
<path class="st1" d="M211.72,106.18c0,0-28.81-39.22-12.81-85.22"/>
<path class="st1" d="M246.22,97.04c0,0-11.31-53.08,7.69-84.08"/>
<path class="st1" d="M270.92,105.13c0,0,7.99-54.17,44.99-64.17"/>
</svg>
