<?xml version="1.0" encoding="utf-8"?>
<!-- Generator: Adobe Illustrator 23.1.0, SVG Export Plug-In . SVG Version: 6.00 Build 0)  -->
<svg version="1.1" id="Layer_1" xmlns="http://www.w3.org/2000/svg" xmlns:xlink="http://www.w3.org/1999/xlink" x="0px" y="0px"
	 viewBox="0 0 326.8 239.9" style="enable-background:new 0 0 326.8 239.9;" xml:space="preserve">
<style type="text/css">
	.st0{fill:#FFFFFF;stroke:#000000;stroke-width:4.9997;stroke-miterlimit:9.9995;}
	.st1{fill:#FFFFFF;stroke:#000000;stroke-width:5;stroke-miterlimit:10;}
</style>
<ellipse transform="matrix(0.2668 -0.9637 0.9637 0.2668 -54.8085 170.3191)" class="st0" cx="84.5" cy="121.2" rx="102" ry="68.2"/>
<path class="st1" d="M294.5,141.1c-11.6,57.7-52.8,98-92.1,90.1c-39.3-7.9-61.7-61-50.1-118.7S206.5-2.1,256.7,9.6
	C295.7,18.6,306.1,83.4,294.5,141.1z"/>
<path d="M71,155.7c-23.9,0.1-43,19.9-42.8,44.3c0,0.3,0,0.6,0,0.9c9.1,11.4,20.7,19,33.9,20.9c18.9,2.8,37.6-6.4,52.4-23.4
	C113.7,174.6,94.5,155.6,71,155.7z"/>
<path d="M214.9,157.9c-24.5-3.7-47.4,12.6-52,36.7c6.9,16.3,18.2,28.6,33.3,34.1c17.5,6.4,37.1,2.4,54.9-9.2c1.1-2.9,1.9-6,2.4-9.2
	C257.3,185.1,240.1,161.7,214.9,157.9z"/>
</svg>
