<?xml version="1.0" encoding="utf-8"?>
<!-- Generator: Adobe Illustrator 23.0.6, SVG Export Plug-In . SVG Version: 6.00 Build 0)  -->
<svg version="1.1" id="Layer_1" xmlns="http://www.w3.org/2000/svg" xmlns:xlink="http://www.w3.org/1999/xlink" x="0px" y="0px"
	 viewBox="0 0 1440 1686.6" style="enable-background:new 0 0 1440 1686.6;" xml:space="preserve">
<style type="text/css">
	.st0{fill:#660099;}
	.st1{fill:#9900CC;}
	.st2{fill-rule:evenodd;clip-rule:evenodd;fill:url(#SVGID_1_);}
	.st3{fill-rule:evenodd;clip-rule:evenodd;fill:url(#SVGID_2_);}
	.st4{fill-rule:evenodd;clip-rule:evenodd;fill:url(#SVGID_3_);}
	.st5{fill-rule:evenodd;clip-rule:evenodd;fill:#131510;}
	.st6{fill-rule:evenodd;clip-rule:evenodd;fill:#121212;}
	.st7{fill-rule:evenodd;clip-rule:evenodd;fill:#EDAB17;}
	.st8{fill-rule:evenodd;clip-rule:evenodd;fill:#CC66FF;}
	.st9{clip-path:url(#SVGID_5_);fill-rule:evenodd;clip-rule:evenodd;fill:#151519;}
	
		.st10{clip-path:url(#SVGID_5_);fill-rule:evenodd;clip-rule:evenodd;fill:#98A7AC;stroke:#040000;stroke-width:6;stroke-miterlimit:10;}
	
		.st11{clip-path:url(#SVGID_5_);fill-rule:evenodd;clip-rule:evenodd;fill:#98A7AC;stroke:#040000;stroke-width:5;stroke-miterlimit:10;}
	.st12{clip-path:url(#SVGID_5_);}
	.st13{fill-rule:evenodd;clip-rule:evenodd;fill:#B1BE94;}
	.st14{fill:#323333;}
	.st15{opacity:0.8;}
	.st16{fill-rule:evenodd;clip-rule:evenodd;fill:#526F4E;}
	.st17{fill-rule:evenodd;clip-rule:evenodd;fill:#0F1D10;}
	.st18{fill-rule:evenodd;clip-rule:evenodd;fill:#435C47;}
	.st19{fill-rule:evenodd;clip-rule:evenodd;fill:#060F07;}
	.st20{fill-rule:evenodd;clip-rule:evenodd;fill:#2F492D;}
	.st21{fill-rule:evenodd;clip-rule:evenodd;fill:#617A45;}
	.st22{fill:#040000;}
	.st23{clip-path:url(#SVGID_5_);fill-rule:evenodd;clip-rule:evenodd;fill:#121317;}
	
		.st24{clip-path:url(#SVGID_5_);fill-rule:evenodd;clip-rule:evenodd;fill:#909DA3;stroke:#19191A;stroke-width:4;stroke-miterlimit:10;}
	
		.st25{clip-path:url(#SVGID_5_);fill-rule:evenodd;clip-rule:evenodd;fill:#7F8E8B;stroke:#19191A;stroke-width:4;stroke-miterlimit:10;}
	
		.st26{clip-path:url(#SVGID_7_);fill-rule:evenodd;clip-rule:evenodd;fill:#98A7AC;stroke:#040000;stroke-width:5;stroke-miterlimit:10;}
	.st27{clip-path:url(#SVGID_7_);}
	.st28{clip-path:url(#SVGID_7_);fill-rule:evenodd;clip-rule:evenodd;fill:#151519;}
	.st29{clip-path:url(#SVGID_7_);fill-rule:evenodd;clip-rule:evenodd;fill:#121317;}
	.st30{fill-rule:evenodd;clip-rule:evenodd;fill:url(#SVGID_8_);}
	.st31{fill-rule:evenodd;clip-rule:evenodd;fill:#E6398D;}
	.st32{fill-rule:evenodd;clip-rule:evenodd;fill:#141412;}
	.st33{fill-rule:evenodd;clip-rule:evenodd;fill:#F1F1F1;}
	.st34{fill-rule:evenodd;clip-rule:evenodd;fill:#42BEEC;}
	.st35{fill:#1B1515;}
	.st36{fill:#8C6239;}
	.st37{fill-rule:evenodd;clip-rule:evenodd;fill:#8C6239;}
	.st38{fill-rule:evenodd;clip-rule:evenodd;fill:#177700;}
	.st39{fill-rule:evenodd;clip-rule:evenodd;fill:url(#SVGID_9_);}
	.st40{fill-rule:evenodd;clip-rule:evenodd;fill:url(#SVGID_10_);}
	.st41{fill-rule:evenodd;clip-rule:evenodd;fill:#BF3461;}
	.st42{fill-rule:evenodd;clip-rule:evenodd;fill:#D56A0F;}
	.st43{fill:#EA9000;}
	.st44{fill:#FFCC33;}
	.st45{fill-rule:evenodd;clip-rule:evenodd;fill:#FFFFFF;}
	.st46{fill:#FFFFFF;}
	.st47{fill:#E6398D;}
</style>
<rect x="-1539.02" y="64.66" class="st0" width="1440" height="1688"/>
<g>
	<path class="st1" d="M123.22,391.2c0,337,273.2,610.2,610.2,610.2s610.2-273.2,610.2-610.2c0-148.9-53.3-285.3-141.9-391.2h-936.6
		C176.52,105.9,123.22,242.3,123.22,391.2z"/>
</g>
<linearGradient id="SVGID_1_" gradientUnits="userSpaceOnUse" x1="832.1499" y1="1534.355" x2="1073.7384" y2="1394.9772">
	<stop  offset="0" style="stop-color:#EB76A1"/>
	<stop  offset="0.2851" style="stop-color:#F09FBE"/>
	<stop  offset="0.7568" style="stop-color:#FAE3EC"/>
	<stop  offset="0.9797" style="stop-color:#FFFFFF"/>
</linearGradient>
<path class="st2" d="M952.71,1673.58h-10.55c-6.47,0-11.72-5.25-11.72-11.72l0.88-388.53c0-6.47,5.25-11.72,11.72-11.72h10.55
	c6.47,0,11.72,5.25,11.72,11.72l-0.88,388.53C964.43,1668.33,959.19,1673.58,952.71,1673.58z"/>
<linearGradient id="SVGID_2_" gradientUnits="userSpaceOnUse" x1="918.1499" y1="1534.355" x2="1159.7384" y2="1394.9772">
	<stop  offset="0" style="stop-color:#EB76A1"/>
	<stop  offset="0.2851" style="stop-color:#F09FBE"/>
	<stop  offset="0.7568" style="stop-color:#FAE3EC"/>
	<stop  offset="0.9797" style="stop-color:#FFFFFF"/>
</linearGradient>
<path class="st3" d="M1038.71,1673.58h-10.55c-6.47,0-11.72-5.25-11.72-11.72l0.88-388.53c0-6.47,5.25-11.72,11.72-11.72h10.55
	c6.47,0,11.72,5.25,11.72,11.72l-0.88,388.53C1050.43,1668.33,1045.19,1673.58,1038.71,1673.58z"/>
<linearGradient id="SVGID_3_" gradientUnits="userSpaceOnUse" x1="1078.6881" y1="887.4744" x2="1262.4099" y2="877.0521">
	<stop  offset="0.0618" style="stop-color:#F09FBE"/>
	<stop  offset="0.3704" style="stop-color:#FAE3EC"/>
	<stop  offset="0.9797" style="stop-color:#FFFFFF"/>
</linearGradient>
<path class="st4" d="M1129.31,1042.6L1129.31,1042.6c-10.49,0-19-8.51-19-19v-278c0-10.49,8.51-19,19-19l0,0c10.49,0,19,8.51,19,19
	v278C1148.31,1034.1,1139.81,1042.6,1129.31,1042.6z"/>
<path class="st5" d="M754.87,725.6c9.5,4.9,19.4,8.4,29.4,10.5l123.2,25l85.5-239.7l-58.7-50.2l-59-12l-74.5,141.1
	c-12.7,24-42.7,33.3-66.8,20.6l0,0c-24-12.7-33.3-42.7-20.6-66.8l-7.6,14.4c-29.6,56-8.3,125.9,47.2,156.1
	C753.57,724.9,754.27,725.3,754.87,725.6L754.87,725.6z"/>
<path class="st6" d="M1129.07,713.1L1129.07,713.1c-25.8,0-47-21.1-47-47v-186c0-25.8,21.1-47,47-47l0,0c25.8,0,47,21.1,47,47v186
	C1175.97,691.9,1154.87,713.1,1129.07,713.1z"/>
<path class="st7" d="M892.63,802.52h196v321.4c0,84.9,47.7,159.2,117.7,197.4v1.8h-431.1v-2.4c69.8-38.2,117.3-112.4,117.3-197.2
	v-321L892.63,802.52L892.63,802.52z"/>
<path class="st8" d="M1084.47,662.6c2.5,0.5,5,0.7,7.7,0.6c18.9-0.4,34.6-15.7,35.5-34.6c0.5-10.4-3.4-19.9-10-26.8
	c14.3-10.7,23.5-27.7,23.5-46.8c0-31.7-25.2-57.5-56.7-58.4V662.6L1084.47,662.6z"/>
<path class="st7" d="M1178.31,884.6V662.45c0-19.47-21.2-35.33-47-35.33l0,0c-25.9,0-47,15.94-47,35.33v222.08L1178.31,884.6z"/>
<g>
	<defs>
		<path id="SVGID_4_" d="M892.67,802.5l196,0.03l-0.05,321.4c-0.01,84.9,47.68,159.21,117.67,197.42l0,1.8l-431.1-0.06l0-2.4
			c69.81-38.19,117.32-112.38,117.33-197.18l0.05-321H892.67L892.67,802.5z"/>
	</defs>
	<clipPath id="SVGID_5_">
		<use xlink:href="#SVGID_4_"  style="overflow:visible;"/>
	</clipPath>
	<path class="st9" d="M906.49,859.69c0,0,4.21,109.95,50.57,156.32C957.07,1016,1011.05,929.08,906.49,859.69z"/>
	<path class="st10" d="M1087.81,901.6c0,0-1.95,35.15-80.07,80.07l13.67,23.43c0,0,56.63-37.1,66.4-52.73V901.6z"/>
	<path class="st11" d="M992.91,1155.69c0,0,39.68,61.04,6.8,100.43l29.63-9.1c0,0,12.29-38.3-18.27-96.91L992.91,1155.69z"/>
	<g class="st12">
		<g>
			<path class="st13" d="M897.12,984.36c-0.6,47.16-1.21,94.33-1.81,141.49c-0.04,3.25-0.03,6.7,1.66,9.48
				c1.67,2.74,4.67,4.33,7.53,5.8c24.42,12.48,50.88,25.32,78.01,21.34c10.33-1.52,20.15-5.44,29.56-9.94
				c9.73-4.65,19.51-10.26,25.59-19.16c10.25-15,7.35-35.81-1.37-51.76c-3.24-5.93-7.3-11.73-8.01-18.45
				c-0.57-5.43,1.12-10.81,2.2-16.17c4.76-23.72-6.33-52.42-29.63-58.92c-9.7-2.7-21.06-1.68-28.63-8.31
				c-4.28-3.75-6.58-9.42-11.02-12.98c-9.02-7.24-22.46-2.99-32.44,2.86c-9.99,5.85-20.49,13.31-31.93,11.56"/>
			<g>
				<path class="st14" d="M891.12,984.36c-0.3,23.16-0.59,46.33-0.89,69.49c-0.29,23.08-0.59,46.16-0.89,69.24
					c-0.07,5.51-0.36,11.53,3.1,16.2c3.38,4.56,8.58,6.8,13.5,9.28c9.78,4.94,19.69,9.67,29.98,13.45
					c10.09,3.71,20.61,6.32,31.37,7.01c10.93,0.7,21.85-1.07,32.14-4.72c5.34-1.89,10.55-4.17,15.66-6.62
					c4.28-2.05,8.51-4.24,12.48-6.85c4.16-2.73,8.18-5.87,11.48-9.61c3.54-4.01,6.19-8.43,8.14-13.4c3.57-9.11,3.58-19.3,1.77-28.8
					c-0.85-4.48-2.23-8.83-3.99-13.04c-2.01-4.79-4.57-9.19-7.08-13.73c-0.55-0.99-1.08-1.99-1.57-3.01
					c-0.21-0.44-0.64-1.05-0.71-1.53c0.17,1.21,0.24,0.59,0.04,0.08c-0.13-0.32-0.25-0.65-0.36-0.98c-0.39-1.11-0.72-2.25-0.95-3.41
					c-0.05-0.27-0.09-0.55-0.15-0.82c-0.16-0.83,0.08,1.22,0.05,0.32c-0.03-0.78-0.1-1.54-0.09-2.32c0.01-0.62,0.04-1.24,0.09-1.86
					c0.03-0.37,0.02-0.8,0.12-1.16c-0.05,0.17-0.21,1.34-0.02,0.21c0.24-1.39,0.5-2.77,0.8-4.15c0.51-2.33,1.08-4.64,1.46-6.99
					c1.39-8.49,1.17-17.05-0.7-25.47c-3.58-16.13-13.64-30.96-29.21-37.41c-8.04-3.33-16.89-2.9-25.09-5.56
					c-0.53-0.17-1.05-0.38-1.58-0.56c-0.74-0.26,1.12,0.51,0.41,0.18c-0.22-0.1-0.45-0.2-0.67-0.31c-1.07-0.51-2.05-1.13-3.04-1.78
					c-0.74-0.48,0.37,0.06,0.31,0.26c0-0.02-0.62-0.52-0.58-0.49c-0.39-0.34-0.76-0.7-1.12-1.07c-0.36-0.37-0.71-0.75-1.04-1.14
					c-0.17-0.2-0.33-0.39-0.5-0.6c-0.26-0.31-0.83-1.34-0.02-0.01c-1.33-2.17-3.05-4.25-4.62-6.25c-1.65-2.1-3.5-3.86-5.68-5.41
					c-8.2-5.87-19.45-4.61-28.31-1.11c-4.69,1.85-8.99,4.25-13.31,6.84c-2.17,1.3-4.34,2.61-6.57,3.82
					c-1.01,0.55-2.03,1.09-3.06,1.6c-0.58,0.28-1.15,0.56-1.74,0.82c-0.26,0.12-0.52,0.23-0.78,0.34c-0.69,0.31,1.12-0.44,0.07-0.04
					c-2.2,0.84-4.43,1.56-6.76,1.97c-0.26,0.05-0.56,0.06-0.81,0.13c0.15-0.04,1.44-0.15,0.38-0.07c-0.55,0.04-1.09,0.09-1.64,0.1
					c-0.55,0.02-1.1,0.01-1.65-0.01c-0.38-0.02-2.72-0.29-0.9-0.03c-1.67-0.24-3.11-0.28-4.62,0.6c-1.24,0.73-2.43,2.16-2.76,3.59
					c-0.65,2.84,0.87,6.9,4.19,7.38c5.51,0.79,10.91,0.34,16.18-1.52c4.95-1.74,9.59-4.23,14.09-6.9c3.93-2.33,7.77-4.8,11.94-6.68
					c0.15-0.07,0.77-0.45,0.9-0.4c-0.03-0.01-1.4,0.56-0.34,0.15c0.49-0.19,0.97-0.39,1.47-0.57c1.04-0.38,2.09-0.73,3.16-1.03
					c1.05-0.3,2.11-0.56,3.18-0.76c0.5-0.09,1-0.15,1.5-0.25c-0.11,0.02-1.51,0.15-0.48,0.08c0.31-0.02,0.62-0.06,0.93-0.08
					c0.98-0.07,1.96-0.09,2.94-0.04c0.48,0.02,0.96,0.07,1.44,0.12c0.84,0.08-1.58-0.31-0.35-0.03c0.29,0.06,0.58,0.11,0.87,0.18
					c0.46,0.1,0.92,0.23,1.37,0.37c0.23,0.07,1.71,0.71,0.79,0.24c-0.96-0.49,0.56,0.29,0.74,0.38c0.48,0.26,0.95,0.54,1.41,0.84
					c-0.02-0.01,0.56,0.44,0.61,0.42c-0.32,0.08-1.04-0.85-0.17-0.11c0.39,0.34,0.76,0.69,1.13,1.06c0.36,0.37,0.71,0.75,1.04,1.13
					c0.17,0.19,0.33,0.39,0.5,0.59c0.55,0.67,0.23,0.34-0.1-0.15c1.45,2.14,3.04,4.22,4.62,6.25c3.21,4.13,7.24,6.96,12.08,8.88
					c4.04,1.6,8.39,2.21,12.66,2.83c4.13,0.6,8.29,1.2,12.24,2.6c0.4,0.14,0.8,0.3,1.2,0.45c1.24,0.48-1.32-0.6,0.18,0.08
					c0.82,0.37,1.62,0.77,2.4,1.21c1.57,0.86,3.03,1.86,4.47,2.91c0.6,0.43-1.03-0.84-0.47-0.36c0.16,0.13,0.33,0.26,0.49,0.39
					c0.32,0.27,0.64,0.54,0.96,0.81c0.67,0.59,1.32,1.2,1.95,1.83c0.63,0.63,1.24,1.29,1.83,1.96c0.28,0.32,0.55,0.64,0.82,0.97
					c0.13,0.16,0.27,0.33,0.4,0.49c0.61,0.75-0.05-0.02-0.25-0.34c2.02,3.09,4.05,6.02,5.59,9.4c0.18,0.4,0.34,0.8,0.53,1.2
					c-0.82-1.69-0.16-0.37,0.02,0.08c0.36,0.92,0.7,1.85,1.01,2.79c0.6,1.78,1.1,3.59,1.53,5.42c0.2,0.87,0.38,1.73,0.54,2.61
					c0.08,0.44,0.16,0.88,0.23,1.31c0.08,0.52,0.24,2.43,0.07,0.39c0.15,1.89,0.39,3.75,0.46,5.65c0.06,1.83,0.04,3.66-0.07,5.48
					c-0.06,0.94-0.13,1.87-0.23,2.8c-0.05,0.5-0.33,1.99,0.01,0.04c-0.08,0.49-0.14,0.98-0.22,1.46c-0.88,5.29-2.5,10.43-2.81,15.82
					c-0.33,5.76,1.41,11.17,3.95,16.27c2.1,4.22,4.71,8.15,6.73,12.41c0.22,0.47,0.44,0.95,0.66,1.43c0.01,0.03,0.34,0.63,0.32,0.72
					c0.08-0.33-0.45-1.1-0.15-0.34c0.44,1.1,0.87,2.21,1.26,3.33c0.74,2.12,1.37,4.28,1.89,6.46c0.24,1.03,0.46,2.06,0.64,3.09
					c0.09,0.52,0.18,1.03,0.26,1.55c0.04,0.26,0.07,0.52,0.11,0.78c-0.3-1.77-0.06-0.4-0.02-0.04c0.23,2.13,0.34,4.27,0.31,6.41
					c-0.02,1.09-0.07,2.18-0.16,3.27c-0.04,0.51-0.1,1.02-0.15,1.52c-0.07,0.6-0.33,0.46,0.06-0.46c-0.12,0.27-0.1,0.66-0.15,0.94
					c-0.36,2.12-0.87,4.22-1.57,6.26c-0.16,0.48-0.34,0.95-0.52,1.43c-0.54,1.39,0.48-1.04-0.13,0.32c-0.44,0.99-0.93,1.96-1.46,2.9
					c-0.54,0.96-1.12,1.89-1.75,2.79c-0.15,0.22-0.31,0.44-0.47,0.66c-0.13,0.18-0.63,0.92-0.13,0.2c0.49-0.71-0.01,0.01-0.15,0.18
					c-0.21,0.26-0.42,0.52-0.64,0.77c-1.48,1.72-3.1,3.32-4.83,4.79c-0.41,0.35-0.83,0.68-1.24,1.02c-0.8,0.66,0.14-0.11,0.26-0.19
					c-0.22,0.14-0.43,0.33-0.64,0.49c-0.98,0.72-1.97,1.42-2.99,2.08c-3.86,2.53-7.96,4.68-12.12,6.67c-2.34,1.12-4.7,2.2-7.08,3.23
					c-0.26,0.11-1.04,0.48,0.16-0.06c-0.28,0.13-0.57,0.24-0.85,0.35c-0.57,0.23-1.14,0.46-1.71,0.69
					c-1.29,0.51-2.58,0.99-3.89,1.45c-4.84,1.7-9.82,3.05-14.9,3.82c-0.21,0.03-1.2,0.16-0.33,0.05c0.87-0.11-0.11,0.01-0.33,0.03
					c-0.6,0.07-1.2,0.13-1.8,0.19c-1.34,0.12-2.69,0.2-4.03,0.25c-2.53,0.08-5.06,0.03-7.58-0.14c-1.19-0.08-2.37-0.19-3.55-0.32
					c-0.3-0.03-0.59-0.07-0.89-0.1c-0.22-0.03-1.19-0.16-0.31-0.04c0.88,0.12-0.09-0.02-0.31-0.05c-0.37-0.05-0.74-0.11-1.1-0.17
					c-2.51-0.4-5-0.91-7.47-1.5c-5.01-1.2-9.92-2.76-14.75-4.55c-2.43-0.9-4.92-1.77-7.26-2.88c0.17,0.08,1.18,0.5,0.16,0.06
					c-0.28-0.12-0.57-0.24-0.85-0.36c-0.56-0.24-1.13-0.49-1.69-0.74c-1.27-0.56-2.53-1.13-3.79-1.71
					c-4.67-2.15-9.28-4.44-13.87-6.76c-2.15-1.09-4.35-2.13-6.43-3.34c-0.45-0.26-0.89-0.53-1.32-0.82
					c-0.05-0.04-0.11-0.07-0.16-0.11c-0.42-0.3-0.42-0.3-0.02,0.02c0.1,0.08,0.2,0.16,0.3,0.24c-0.2-0.16-0.39-0.32-0.58-0.49
					c-0.3-0.27-0.72-0.92-1.07-1.08c0.15,0.07,0.76,1.18,0.25,0.31c-0.16-0.28-0.32-0.59-0.5-0.85c-0.44-0.66,0.35,1.09,0.12,0.33
					c-0.08-0.25-0.18-0.5-0.25-0.76c-0.15-0.52-0.24-1.04-0.35-1.57c-0.17-0.81,0.1,1.21,0.06,0.38c-0.01-0.27-0.05-0.54-0.06-0.82
					c-0.04-0.69-0.06-1.37-0.06-2.06c-0.01-2.64,0.06-5.29,0.09-7.93c0.07-5.67,0.14-11.33,0.22-17c0.14-11.33,0.29-22.66,0.43-34
					c0.29-22.5,0.58-45,0.86-67.49c0.07-5.5,0.14-11,0.21-16.5c0.04-3.14-2.79-6.14-6-6C893.84,978.51,891.17,981,891.12,984.36
					L891.12,984.36z"/>
			</g>
		</g>
		<g class="st15">
			<path class="st16" d="M928.88,1023.65c-2.51-1.45-5.86-0.6-8.04,1.32c-2.17,1.92-3.39,4.68-4.34,7.42
				c-5.74,16.53-3.95,34.61-2.08,52.02c0.46,4.33,0.97,8.8,3.18,12.56c3.92,6.69,12.08,9.4,19.56,11.46
				c7.87,2.16,15.94,4.2,24.09,3.75c12.89-0.72,25-7.86,32.99-18s12.07-23.03,12.81-35.92c0.47-8.19-1.15-17.78-8.31-21.78
				c-3.92-2.19-8.66-2.18-12.98-3.41c-7.55-2.16-13.4-7.97-19.84-12.47c-6.45-4.49-15-7.78-22.02-4.24
				c-4.71,2.37-8.89,7.69-13.95,6.23"/>
		</g>
		<g>
			<path class="st17" d="M938.4,1036.03c-2.9-1.39-6.34-1.29-9.41-0.36c-3.07,0.93-5.85,2.64-8.53,4.41
				c-2.09,1.38-4.22,2.89-5.43,5.09c-1.21,2.2-1.21,5.27,0.67,6.93c2.14,1.9,5.44,1.19,8.18,0.38c6.21-1.82,12.72-3.56,19.08-2.36
				c1.82,0.35,3.62,0.93,5.47,1c1.86,0.07,3.87-0.49,4.96-1.99c1.38-1.89,0.8-4.7-0.73-6.46s-3.8-2.71-6.01-3.47
				s-4.52-1.4-6.43-2.76"/>
		</g>
		<g>
			<path class="st17" d="M964.15,1032.75c-1.46-0.84-3.31,0.89-3.25,2.57c0.06,1.68,1.26,3.08,2.4,4.32
				c5.73,6.26,11.46,12.51,17.19,18.77c1.07,1.16,2.41,2.43,3.97,2.19c0.52-0.08,0.99-0.33,1.42-0.63c2.64-1.87,3.33-5.67,2.4-8.77
				c-0.94-3.1-3.17-5.63-5.48-7.89c-5.13-5.02-11.17-9.4-18.13-11.17"/>
		</g>
		<g>
			<path class="st17" d="M966.58,1055.58c-11.36,0.3-22.72,0.6-34.08,0.89c-1.8,0.05-4.08,0.47-4.46,2.23
				c-0.14,0.63,0.04,1.29,0.31,1.87c0.99,2.11,3.2,3.33,5.33,4.27c6.6,2.9,13.84,4.33,21.04,4.16c2.4-0.06,4.89-0.32,6.95-1.54
				c3.69-2.17,5.14-6.92,4.78-11.18"/>
		</g>
		<g>
			<path class="st17" d="M990.68,1065.88c-8.2,7.96-19.91,11.32-31.3,12.23c-3.39,0.27-7.07,0.46-9.64,2.69
				c-0.41,0.36-0.8,0.8-0.87,1.34c-0.09,0.78,0.52,1.46,1.13,1.96c4.7,3.84,11.4,3.64,17.46,3.24c4.18-0.27,8.36-0.55,12.54-0.82
				c1.49-0.1,3-0.2,4.41-0.7c2.15-0.76,3.9-2.4,5.24-4.25c3.42-4.7,4.45-11.35,1.61-16.42"/>
		</g>
	</g>
	<g class="st12">
		<g>
			<path class="st13" d="M734.12,1245.36c-0.6,47.16-1.21,94.33-1.81,141.49c-0.04,3.25-0.03,6.7,1.66,9.48
				c1.67,2.74,4.67,4.33,7.53,5.8c24.42,12.48,50.88,25.32,78.01,21.34c10.33-1.52,20.15-5.44,29.56-9.94
				c9.73-4.65,19.51-10.26,25.59-19.16c10.25-15,7.35-35.81-1.37-51.76c-3.24-5.93-7.3-11.73-8.01-18.45
				c-0.57-5.43,1.12-10.81,2.2-16.17c4.76-23.72-6.33-52.42-29.63-58.92c-9.7-2.7-21.06-1.68-28.63-8.31
				c-4.28-3.75-6.58-9.42-11.02-12.98c-9.02-7.24-22.46-2.99-32.44,2.86c-9.99,5.85-20.49,13.31-31.93,11.56"/>
			<g>
				<path class="st14" d="M728.12,1245.36c-0.3,23.16-0.59,46.33-0.89,69.49c-0.29,23.08-0.59,46.16-0.89,69.24
					c-0.07,5.51-0.36,11.53,3.1,16.2c3.38,4.56,8.58,6.8,13.5,9.28c9.78,4.94,19.69,9.67,29.98,13.45
					c10.09,3.71,20.61,6.32,31.37,7.01c10.93,0.7,21.85-1.07,32.14-4.72c5.34-1.89,10.55-4.17,15.66-6.62
					c4.28-2.05,8.51-4.24,12.48-6.85c4.16-2.73,8.18-5.87,11.48-9.61c3.54-4.01,6.19-8.43,8.14-13.4c3.57-9.11,3.58-19.3,1.77-28.8
					c-0.85-4.48-2.23-8.83-3.99-13.04c-2.01-4.79-4.57-9.19-7.08-13.73c-0.55-0.99-1.08-1.99-1.57-3.01
					c-0.21-0.44-0.64-1.05-0.71-1.53c0.17,1.21,0.24,0.59,0.04,0.08c-0.13-0.32-0.25-0.65-0.36-0.98c-0.39-1.11-0.72-2.25-0.95-3.41
					c-0.05-0.27-0.09-0.55-0.15-0.82c-0.16-0.83,0.08,1.22,0.05,0.32c-0.03-0.78-0.1-1.54-0.09-2.32c0.01-0.62,0.04-1.24,0.09-1.86
					c0.03-0.37,0.02-0.8,0.12-1.16c-0.05,0.17-0.21,1.34-0.02,0.21c0.24-1.39,0.5-2.77,0.8-4.15c0.51-2.33,1.08-4.64,1.46-6.99
					c1.39-8.49,1.17-17.05-0.7-25.47c-3.58-16.13-13.64-30.96-29.21-37.41c-8.04-3.33-16.89-2.9-25.09-5.56
					c-0.53-0.17-1.05-0.38-1.58-0.56c-0.74-0.26,1.12,0.51,0.41,0.18c-0.22-0.1-0.45-0.2-0.67-0.31c-1.07-0.51-2.05-1.13-3.04-1.78
					c-0.74-0.48,0.37,0.06,0.31,0.26c0-0.02-0.62-0.52-0.58-0.49c-0.39-0.34-0.76-0.7-1.12-1.07c-0.36-0.37-0.71-0.75-1.04-1.14
					c-0.17-0.2-0.33-0.39-0.5-0.6c-0.26-0.31-0.83-1.34-0.02-0.01c-1.33-2.17-3.05-4.25-4.62-6.25c-1.65-2.1-3.5-3.86-5.68-5.41
					c-8.2-5.87-19.45-4.61-28.31-1.11c-4.69,1.85-8.99,4.25-13.31,6.84c-2.17,1.3-4.34,2.6-6.57,3.82c-1.01,0.55-2.03,1.09-3.06,1.6
					c-0.58,0.28-1.15,0.56-1.74,0.82c-0.26,0.12-0.52,0.23-0.78,0.34c-0.69,0.31,1.12-0.44,0.07-0.04c-2.2,0.84-4.43,1.56-6.76,1.97
					c-0.26,0.05-0.56,0.06-0.81,0.13c0.15-0.04,1.44-0.15,0.38-0.07c-0.55,0.04-1.09,0.09-1.64,0.1c-0.55,0.02-1.1,0.01-1.65-0.01
					c-0.38-0.02-2.72-0.29-0.9-0.03c-1.67-0.24-3.11-0.28-4.62,0.6c-1.24,0.73-2.43,2.16-2.76,3.59c-0.65,2.84,0.87,6.9,4.19,7.38
					c5.51,0.79,10.91,0.34,16.18-1.52c4.95-1.74,9.59-4.23,14.09-6.9c3.93-2.33,7.77-4.8,11.94-6.68c0.15-0.07,0.77-0.45,0.9-0.4
					c-0.03-0.01-1.4,0.56-0.34,0.15c0.49-0.19,0.97-0.39,1.47-0.57c1.04-0.38,2.09-0.73,3.16-1.03c1.05-0.3,2.11-0.56,3.18-0.76
					c0.5-0.09,1-0.15,1.5-0.25c-0.11,0.02-1.51,0.15-0.48,0.08c0.31-0.02,0.62-0.06,0.93-0.08c0.98-0.07,1.96-0.09,2.94-0.04
					c0.48,0.02,0.96,0.07,1.44,0.12c0.84,0.08-1.58-0.31-0.35-0.03c0.29,0.06,0.58,0.11,0.87,0.18c0.46,0.1,0.92,0.23,1.37,0.37
					c0.23,0.07,1.71,0.71,0.79,0.24c-0.96-0.49,0.56,0.29,0.74,0.38c0.48,0.26,0.95,0.54,1.41,0.84c-0.02-0.01,0.56,0.44,0.61,0.42
					c-0.32,0.08-1.04-0.85-0.17-0.11c0.39,0.34,0.76,0.69,1.13,1.06c0.36,0.37,0.71,0.75,1.04,1.13c0.17,0.19,0.33,0.39,0.5,0.59
					c0.55,0.67,0.23,0.34-0.1-0.15c1.45,2.14,3.04,4.22,4.62,6.25c3.21,4.13,7.24,6.96,12.08,8.88c4.04,1.6,8.39,2.21,12.66,2.83
					c4.13,0.6,8.29,1.2,12.24,2.6c0.4,0.14,0.8,0.3,1.2,0.45c1.24,0.48-1.32-0.6,0.18,0.08c0.82,0.37,1.62,0.77,2.4,1.21
					c1.57,0.86,3.03,1.86,4.47,2.91c0.6,0.43-1.03-0.83-0.47-0.36c0.16,0.13,0.33,0.26,0.49,0.39c0.32,0.27,0.64,0.54,0.96,0.81
					c0.67,0.59,1.32,1.2,1.95,1.83c0.63,0.63,1.24,1.29,1.83,1.96c0.28,0.32,0.55,0.64,0.82,0.97c0.13,0.16,0.27,0.33,0.4,0.49
					c0.61,0.75-0.05-0.02-0.25-0.34c2.02,3.09,4.05,6.02,5.59,9.4c0.18,0.4,0.34,0.8,0.53,1.2c-0.82-1.69-0.16-0.37,0.02,0.08
					c0.36,0.92,0.7,1.85,1.01,2.79c0.6,1.78,1.1,3.59,1.53,5.42c0.2,0.87,0.38,1.73,0.54,2.61c0.08,0.44,0.16,0.88,0.23,1.31
					c0.08,0.52,0.24,2.43,0.07,0.39c0.15,1.89,0.39,3.75,0.46,5.65c0.06,1.83,0.04,3.66-0.07,5.48c-0.06,0.94-0.13,1.87-0.23,2.8
					c-0.05,0.5-0.33,1.99,0.01,0.04c-0.08,0.49-0.14,0.98-0.22,1.46c-0.88,5.29-2.5,10.43-2.81,15.82
					c-0.33,5.76,1.41,11.17,3.95,16.27c2.1,4.22,4.71,8.15,6.73,12.41c0.22,0.47,0.44,0.95,0.66,1.43c0.01,0.03,0.34,0.63,0.32,0.72
					c0.08-0.33-0.45-1.1-0.15-0.34c0.44,1.1,0.87,2.21,1.26,3.33c0.74,2.12,1.37,4.28,1.89,6.46c0.24,1.03,0.46,2.06,0.64,3.09
					c0.09,0.52,0.18,1.03,0.26,1.55c0.04,0.26,0.07,0.52,0.11,0.78c-0.3-1.77-0.06-0.4-0.02-0.04c0.23,2.13,0.34,4.27,0.31,6.41
					c-0.02,1.09-0.07,2.18-0.16,3.27c-0.04,0.51-0.1,1.02-0.15,1.52c-0.07,0.6-0.33,0.46,0.07-0.46c-0.12,0.27-0.1,0.66-0.15,0.94
					c-0.36,2.12-0.87,4.22-1.57,6.26c-0.16,0.48-0.34,0.95-0.52,1.43c-0.54,1.39,0.48-1.04-0.13,0.32c-0.44,0.99-0.93,1.96-1.46,2.9
					c-0.54,0.96-1.12,1.89-1.75,2.79c-0.15,0.22-0.31,0.44-0.47,0.66c-0.13,0.18-0.63,0.92-0.13,0.2c0.49-0.71-0.01,0.01-0.15,0.18
					c-0.21,0.26-0.42,0.52-0.64,0.77c-1.48,1.72-3.1,3.32-4.83,4.79c-0.41,0.35-0.83,0.68-1.24,1.02c-0.8,0.66,0.14-0.11,0.26-0.19
					c-0.22,0.14-0.43,0.33-0.64,0.49c-0.98,0.72-1.97,1.42-2.99,2.08c-3.86,2.53-7.96,4.68-12.12,6.67c-2.34,1.12-4.7,2.2-7.08,3.23
					c-0.26,0.11-1.04,0.48,0.16-0.06c-0.28,0.13-0.57,0.24-0.85,0.35c-0.57,0.23-1.14,0.46-1.71,0.69
					c-1.29,0.51-2.58,0.99-3.89,1.45c-4.84,1.7-9.82,3.05-14.9,3.82c-0.21,0.03-1.2,0.16-0.33,0.05c0.87-0.11-0.11,0.01-0.33,0.03
					c-0.6,0.07-1.2,0.13-1.8,0.19c-1.34,0.12-2.69,0.2-4.03,0.25c-2.53,0.08-5.06,0.03-7.58-0.14c-1.19-0.08-2.37-0.19-3.55-0.32
					c-0.3-0.03-0.59-0.07-0.89-0.1c-0.22-0.03-1.19-0.16-0.31-0.04c0.88,0.12-0.09-0.02-0.31-0.05c-0.37-0.05-0.74-0.11-1.1-0.17
					c-2.51-0.4-5-0.91-7.47-1.5c-5.01-1.2-9.92-2.76-14.75-4.55c-2.43-0.9-4.92-1.77-7.26-2.88c0.17,0.08,1.18,0.5,0.16,0.06
					c-0.28-0.12-0.57-0.24-0.85-0.36c-0.56-0.24-1.13-0.49-1.69-0.74c-1.27-0.56-2.53-1.13-3.79-1.71
					c-4.67-2.15-9.28-4.44-13.87-6.76c-2.15-1.09-4.35-2.13-6.43-3.34c-0.45-0.26-0.89-0.53-1.32-0.82
					c-0.05-0.04-0.11-0.07-0.16-0.11c-0.42-0.3-0.42-0.3-0.02,0.02c0.1,0.08,0.2,0.16,0.3,0.24c-0.2-0.16-0.39-0.32-0.58-0.49
					c-0.3-0.27-0.72-0.92-1.07-1.08c0.15,0.07,0.76,1.18,0.25,0.31c-0.16-0.28-0.32-0.59-0.5-0.85c-0.44-0.66,0.35,1.09,0.12,0.33
					c-0.08-0.25-0.18-0.5-0.25-0.76c-0.15-0.52-0.24-1.04-0.35-1.57c-0.17-0.81,0.1,1.21,0.06,0.38c-0.01-0.27-0.05-0.54-0.06-0.82
					c-0.04-0.69-0.06-1.37-0.06-2.06c-0.01-2.64,0.06-5.29,0.09-7.93c0.07-5.67,0.14-11.33,0.22-17c0.14-11.33,0.29-22.66,0.43-34
					c0.29-22.5,0.58-45,0.86-67.49c0.07-5.5,0.14-11,0.21-16.5c0.04-3.14-2.79-6.14-6-6C730.84,1239.51,728.17,1242,728.12,1245.36
					L728.12,1245.36z"/>
			</g>
		</g>
		<g class="st15">
			<path class="st16" d="M765.88,1284.65c-2.51-1.45-5.86-0.6-8.04,1.32c-2.17,1.92-3.39,4.68-4.34,7.42
				c-5.74,16.53-3.95,34.61-2.08,52.02c0.46,4.33,0.97,8.8,3.18,12.56c3.92,6.69,12.08,9.4,19.56,11.46
				c7.87,2.16,15.94,4.2,24.09,3.75c12.89-0.72,25-7.86,32.99-18s12.07-23.03,12.81-35.92c0.47-8.19-1.15-17.78-8.31-21.78
				c-3.92-2.19-8.66-2.18-12.98-3.41c-7.55-2.16-13.4-7.97-19.84-12.47s-15-7.78-22.02-4.24c-4.71,2.37-8.89,7.69-13.95,6.23"/>
		</g>
		<g>
			<path class="st17" d="M775.4,1297.03c-2.9-1.39-6.34-1.29-9.41-0.36c-3.07,0.93-5.85,2.64-8.53,4.41
				c-2.09,1.38-4.22,2.89-5.43,5.09c-1.21,2.2-1.21,5.27,0.67,6.93c2.14,1.9,5.44,1.19,8.18,0.38c6.21-1.82,12.72-3.56,19.08-2.36
				c1.82,0.35,3.62,0.93,5.47,1c1.86,0.07,3.87-0.49,4.96-1.99c1.38-1.89,0.8-4.7-0.73-6.46s-3.8-2.71-6.01-3.47
				s-4.52-1.4-6.43-2.76"/>
		</g>
		<g>
			<path class="st17" d="M801.15,1293.75c-1.46-0.84-3.31,0.89-3.25,2.57c0.06,1.68,1.26,3.08,2.4,4.32
				c5.73,6.26,11.46,12.51,17.19,18.77c1.07,1.16,2.41,2.43,3.97,2.19c0.52-0.08,0.99-0.33,1.42-0.63c2.64-1.87,3.33-5.67,2.4-8.77
				c-0.94-3.1-3.17-5.63-5.48-7.89c-5.13-5.02-11.17-9.4-18.13-11.17"/>
		</g>
		<g>
			<path class="st17" d="M803.58,1316.58c-11.36,0.3-22.72,0.6-34.08,0.89c-1.8,0.05-4.08,0.47-4.46,2.23
				c-0.14,0.63,0.04,1.29,0.31,1.87c0.99,2.11,3.2,3.33,5.33,4.27c6.6,2.9,13.84,4.33,21.04,4.16c2.4-0.06,4.89-0.32,6.95-1.54
				c3.69-2.17,5.14-6.92,4.78-11.18"/>
		</g>
		<g>
			<path class="st17" d="M827.68,1326.88c-8.2,7.96-19.91,11.32-31.3,12.23c-3.39,0.27-7.07,0.46-9.64,2.69
				c-0.41,0.36-0.8,0.8-0.87,1.34c-0.09,0.78,0.52,1.46,1.13,1.96c4.7,3.84,11.4,3.64,17.46,3.24c4.18-0.27,8.36-0.55,12.54-0.82
				c1.49-0.1,3-0.2,4.41-0.7c2.15-0.76,3.9-2.4,5.24-4.25c3.42-4.7,4.45-11.35,1.61-16.42"/>
		</g>
	</g>
	<g class="st12">
		<g>
			<path class="st13" d="M1077.44,1211.84c-1.47,5.52-7.64,8.56-13.35,8.86c-5.7,0.31-11.32-1.38-17.01-1.85
				c-10.92-0.92-21.7,2.6-31.98,6.4c-10.47,3.88-21.56,8.76-27.08,18.46c-3.47,6.11-4.24,13.45-3.47,20.43
				c0.78,6.98,3,13.71,5.21,20.38c2.01,6.05,4.22,12.42,9.08,16.55c7.49,6.36,18.7,5.42,27.64,9.51c9,4.11,14.84,12.87,22.42,19.23
				c16.29,13.64,41.76,14.88,59.28,2.87c6.1-4.18,11.16-9.67,15.99-15.26c6.22-7.2,12.17-14.71,16.59-23.14
				c6.27-11.96,9.26-25.4,10.62-38.83c0.68-6.72,0.94-13.63-1-20.1c-2.22-7.42-7.23-13.75-13.08-18.82
				c-8.2-7.11-18.39-12.11-29.17-13.4c-10.78-1.29-22.13,1.28-30.83,7.78"/>
			<g>
				<path class="st14" d="M1071.65,1210.24c-0.08,0.27-0.53,1.51-0.14,0.56c0.4-0.99-0.16,0.24-0.3,0.47
					c-0.14,0.23-0.88,1.3-0.29,0.47c0.6-0.83-0.32,0.29-0.53,0.5c-0.16,0.15-0.34,0.29-0.5,0.45c-0.43,0.44,0.59-0.43,0.56-0.41
					c-0.34,0.21-0.65,0.46-0.98,0.67c-0.34,0.21-0.69,0.41-1.05,0.6c-0.21,0.11-0.42,0.2-0.62,0.31c-0.93,0.48,1.01-0.36,0.31-0.13
					c-0.78,0.26-1.54,0.53-2.35,0.72c-0.4,0.09-0.8,0.17-1.2,0.24c-0.2,0.04-0.85,0.13,0.11-0.01c1.06-0.16,0.01-0.02-0.24,0
					c-1.06,0.08-2.13,0.07-3.19,0.02c-0.55-0.03-1.1-0.07-1.65-0.12c-0.24-0.02-0.47-0.04-0.71-0.07c-0.04,0-1.54-0.2-0.62-0.07
					c0.79,0.11-0.01,0-0.15-0.02c-0.31-0.05-0.63-0.09-0.94-0.14c-0.55-0.09-1.1-0.18-1.65-0.27c-1.18-0.19-2.36-0.39-3.54-0.56
					c-2.72-0.4-5.43-0.73-8.18-0.75c-4.88-0.03-9.81,0.69-14.55,1.79c-8.6,2-17.08,5.19-25.14,8.78
					c-7.42,3.31-14.26,7.79-19.21,14.32c-11.66,15.38-5.53,36.09,0.42,52.44c1.44,3.96,3.1,7.92,5.68,11.29
					c2.72,3.54,6.06,6.4,10.18,8.19c7.22,3.13,15.14,3.64,22.49,6.34c0.62,0.23-0.58-0.25-0.56-0.24c0.2,0.13,0.48,0.21,0.7,0.32
					c0.41,0.19,0.81,0.4,1.21,0.61c0.85,0.46,1.68,0.96,2.48,1.49c0.37,0.25,0.74,0.51,1.11,0.77c0.21,0.15,0.41,0.31,0.62,0.46
					c0.53,0.38-0.47-0.34-0.45-0.35c0.17-0.1,2,1.67,2.22,1.87c2.89,2.57,5.51,5.41,8.22,8.16c5.39,5.47,11.36,10.17,18.46,13.2
					c14.8,6.31,31.47,6.28,46.21-0.22c7.71-3.4,14.25-9.02,19.95-15.13c6.22-6.66,12.14-13.78,17.23-21.35
					c10.37-15.43,14.9-33.51,16.49-51.84c0.82-9.42,0.05-18.82-4.48-27.28c-4.13-7.73-10.73-14.01-17.86-18.97
					c-14.2-9.87-33.1-13.74-49.6-7.6c-4.04,1.5-7.88,3.41-11.35,5.97c-1.3,0.96-2.31,1.97-2.76,3.59c-0.4,1.44-0.22,3.35,0.6,4.62
					c1.61,2.49,5.51,4.15,8.21,2.15c1.55-1.14,3.16-2.18,4.86-3.09c0.85-0.45,1.71-0.86,2.58-1.27c0.98-0.46-1.14,0.44,0.27-0.11
					c0.45-0.18,0.9-0.34,1.35-0.51c1.88-0.67,3.8-1.2,5.75-1.6c0.87-0.18,1.79-0.23,2.64-0.46c-0.14,0.04-1.44,0.17-0.37,0.05
					c0.21-0.02,0.41-0.05,0.62-0.07c0.55-0.06,1.1-0.1,1.65-0.14c1.92-0.13,3.86-0.13,5.78-0.02c0.96,0.06,1.92,0.16,2.88,0.27
					c0.69,0.07-0.56-0.08-0.56-0.07c0.19,0.06,0.42,0.06,0.62,0.1c0.55,0.09,1.1,0.19,1.64,0.29c1.91,0.37,3.79,0.86,5.65,1.45
					c0.93,0.3,1.84,0.62,2.75,0.96c0.44,0.17,0.96,0.29,1.36,0.54c0,0-1.09-0.48-0.47-0.2c0.32,0.14,0.64,0.28,0.95,0.43
					c3.55,1.63,6.93,3.63,10.08,5.93c0.18,0.14,1.44,1.08,0.73,0.54c-0.65-0.48-0.07-0.05,0.05,0.05c0.22,0.18,0.43,0.35,0.65,0.53
					c0.75,0.61,1.48,1.24,2.19,1.89c1.42,1.28,2.77,2.63,4.04,4.06c0.58,0.65,1.44,1.42,1.84,2.19c0,0-0.7-0.95-0.32-0.4
					c0.16,0.22,0.32,0.44,0.48,0.66c0.28,0.39,0.55,0.78,0.81,1.17c1.09,1.63,2.06,3.35,2.87,5.13c0.08,0.18,0.15,0.39,0.25,0.56
					c-0.08-0.13-0.5-1.29-0.14-0.31c0.14,0.38,0.29,0.76,0.42,1.14c0.36,1.04,0.66,2.09,0.9,3.16c0.08,0.33,0.36,2.87,0.54,2.93
					c-0.15-0.04-0.13-1.19-0.04-0.23c0.02,0.23,0.05,0.46,0.07,0.68c0.06,0.61,0.1,1.22,0.13,1.83c0.22,4.37-0.14,8.75-0.63,13.08
					c-0.11,0.97-0.23,1.94-0.35,2.91c-0.09,0.7,0.05-0.46,0.06-0.48c-0.09,0.21-0.09,0.65-0.13,0.89c-0.09,0.6-0.18,1.19-0.27,1.78
					c-0.33,2.08-0.71,4.15-1.14,6.21c-0.86,4.11-1.94,8.18-3.29,12.15c-0.34,0.99-0.69,1.98-1.06,2.96
					c-0.16,0.42-0.32,0.84-0.49,1.26c-0.11,0.28-0.22,0.55-0.34,0.83c-0.31,0.78,0.11,0.1,0.09-0.19c0.03,0.34-0.48,1.11-0.63,1.44
					c-0.22,0.48-0.43,0.95-0.66,1.43c-0.45,0.95-0.92,1.89-1.41,2.82c-2,3.81-4.32,7.44-6.82,10.93c-0.57,0.8-1.16,1.59-1.75,2.37
					c-0.18,0.24-0.37,0.48-0.55,0.72c-0.08,0.1-0.53,0.73-0.08,0.11c0.48-0.66-0.11,0.13-0.23,0.29c-0.19,0.24-0.37,0.47-0.56,0.71
					c-1.32,1.66-2.67,3.29-4.04,4.9c-2.74,3.23-5.53,6.43-8.51,9.43c-1.46,1.46-2.97,2.88-4.54,4.22c-0.39,0.33-0.79,0.66-1.19,0.99
					c-0.05,0.04-0.47,0.43-0.52,0.41c0,0,0.9-0.67,0.34-0.26c-0.85,0.63-1.7,1.25-2.58,1.83c-1.42,0.94-2.9,1.8-4.42,2.57
					c-0.76,0.39-1.53,0.74-2.3,1.09c-1,0.46,1.11-0.44,0.09-0.04c-0.45,0.18-0.9,0.36-1.36,0.53c-3.27,1.21-6.62,1.98-10.05,2.54
					c-0.67,0.11,0.74-0.09,0.69-0.09c-0.23,0-0.5,0.06-0.73,0.09c-0.36,0.04-0.73,0.08-1.09,0.11c-0.91,0.08-1.82,0.14-2.74,0.18
					c-1.71,0.07-3.41,0.05-5.12-0.05c-0.85-0.05-1.7-0.12-2.55-0.21c-0.24-0.03-1.5-0.19-0.47-0.05c1.06,0.15-0.55-0.09-0.83-0.13
					c-1.74-0.29-3.47-0.66-5.17-1.13c-1.64-0.45-3.26-0.98-4.85-1.59c-0.34-0.13-0.67-0.28-1.02-0.4c1.64,0.58,0.32,0.13-0.07-0.04
					c-0.83-0.37-1.65-0.77-2.46-1.19c-1.51-0.79-2.97-1.65-4.38-2.6c-0.7-0.47-1.37-1.03-2.08-1.48c-0.03-0.02,1,0.79,0.49,0.38
					c-0.14-0.12-0.29-0.23-0.43-0.34c-0.39-0.32-0.78-0.64-1.16-0.97c-5.89-5.09-10.75-11.19-16.96-15.93
					c-3.18-2.43-6.71-4.23-10.51-5.51c-3.46-1.16-7.06-1.8-10.62-2.56c-1.73-0.37-3.46-0.77-5.16-1.28
					c-0.77-0.23-1.54-0.48-2.3-0.77c-0.23-0.09-0.46-0.18-0.69-0.27c-0.6-0.22,0.59,0.25,0.58,0.25c-0.21-0.28-0.99-0.46-1.33-0.64
					c-0.76-0.4-1.51-0.84-2.21-1.33c-0.15-0.11-0.3-0.22-0.45-0.32c-0.53-0.36,0.48,0.37,0.47,0.37c-0.28-0.38-0.81-0.69-1.15-1.02
					c-0.32-0.31-0.64-0.64-0.94-0.97c-0.13-0.14-0.25-0.29-0.38-0.43c-0.67-0.75,0.14,0.19,0.22,0.31c-0.47-0.76-1.04-1.47-1.5-2.24
					c-0.47-0.78-0.89-1.58-1.29-2.4c-0.2-0.41-0.39-0.83-0.58-1.25c-0.08-0.18-0.15-0.37-0.24-0.54c0.27,0.54,0.4,0.97,0.08,0.16
					c-0.68-1.71-1.28-3.45-1.86-5.2c-1.4-4.2-2.8-8.41-3.87-12.71c-0.54-2.17-0.97-4.35-1.31-6.56c-0.14-0.89,0.11,1.06,0.03,0.17
					c-0.02-0.22-0.05-0.44-0.07-0.67c-0.05-0.5-0.09-1-0.13-1.5c-0.07-1.08-0.11-2.16-0.1-3.24c0.01-0.94,0.05-1.87,0.12-2.81
					c0.04-0.45-0.03-1.09,0.15-1.5c0-0.01-0.19,1.22-0.07,0.53c0.06-0.35,0.11-0.71,0.18-1.06c0.17-0.91,0.38-1.82,0.63-2.71
					c0.25-0.9,0.49-2.26,1.03-3.03c0,0-0.49,1.06-0.18,0.45c0.13-0.25,0.24-0.52,0.37-0.77c0.22-0.45,0.45-0.89,0.7-1.33
					c0.43-0.76,0.9-1.49,1.4-2.2c0.14-0.2,0.32-0.39,0.44-0.6c0.01-0.02-0.79,0.98-0.37,0.49c0.28-0.33,0.55-0.66,0.83-0.99
					c0.57-0.64,1.16-1.26,1.79-1.86c0.62-0.6,1.27-1.17,1.94-1.71c0.14-0.12,0.29-0.23,0.43-0.35c0.6-0.5-0.97,0.71-0.33,0.26
					c0.35-0.25,0.7-0.52,1.06-0.76c1.49-1.04,3.05-1.99,4.65-2.86c1.56-0.85,3.17-1.64,4.79-2.37c0.41-0.18,0.82-0.36,1.23-0.54
					c1.03-0.45-1.06,0.43-0.02,0.01c0.88-0.36,1.77-0.72,2.66-1.07c3.86-1.5,7.76-2.92,11.71-4.17c2.18-0.69,4.37-1.31,6.59-1.84
					c0.99-0.24,1.98-0.45,2.98-0.65c0.54-0.1,1.07-0.2,1.61-0.29c0.23-0.04,0.46-0.08,0.69-0.11c0.23-0.04,0.46-0.07,0.69-0.1
					c-0.22,0.03-0.45,0.06-0.67,0.09c0.22-0.18,1.1-0.13,1.39-0.16c0.54-0.05,1.08-0.1,1.63-0.14c1.16-0.08,2.33-0.12,3.49-0.11
					c1.09,0.01,2.18,0.06,3.27,0.15c0.47,0.04,0.95,0.09,1.42,0.14c0.33,0.03,1.12,0-0.18-0.03c0.31,0.01,0.64,0.09,0.94,0.14
					c4.74,0.71,9.52,1.8,14.34,1.63c4.13-0.14,8.38-1.2,11.91-3.41c3.68-2.3,6.5-5.68,7.7-9.88c0.86-3.02-1.05-6.67-4.19-7.38
					C1075.84,1205.33,1072.58,1207.01,1071.65,1210.24L1071.65,1210.24z"/>
			</g>
		</g>
		<g>
			<path class="st18" d="M1065.95,1243.33c-5.94,1.38-9.39,8.43-15.41,9.45c-2.87,0.49-5.79-0.54-8.7-0.5
				c-2.26,0.03-4.47,0.7-6.56,1.58c-3.37,1.41-6.59,3.45-8.71,6.42c-2.67,3.75-3.29,8.86-1.61,13.14c1.68,4.28,5.62,7.59,10.12,8.52
				c2.01,0.41,4.1,0.38,6.06,0.98c2.43,0.74,4.46,2.39,6.37,4.06c6.62,5.79,12.71,12.42,20.54,16.41
				c9.75,4.97,21.76,5.26,31.74,0.76c2.45-1.11,4.82-2.52,6.59-4.54c2.47-2.83,3.57-6.6,4.15-10.31c0.51-3.29,0.67-6.7-0.29-9.89
				c-0.8-2.65-2.32-5.01-3.86-7.32c-3.61-5.41-7.38-10.72-11.3-15.9c-3.31-4.38-6.92-8.83-11.89-11.17
				c-5.12-2.41-11.02-2.29-16.68-2.12"/>
		</g>
		<g>
			<path class="st19" d="M1064.44,1257.87c-3.03,0.73-6.15-0.76-9.27-0.69c-2.48,0.06-4.83,1.1-7.03,2.27
				c-2.8,1.49-5.76,3.63-6.1,6.78c-0.06,0.54-0.02,1.14,0.34,1.55c0.48,0.55,1.32,0.55,2.06,0.51c8.4-0.53,16.76-1.59,25.11-2.65
				c0.71-0.09,1.49-0.22,1.95-0.76c0.74-0.87,0.21-2.23-0.52-3.1c-1.42-1.69-3.56-2.76-5.76-2.88"/>
		</g>
		<g>
			<path class="st19" d="M1083.74,1256.57c-1.18-0.99-3.01-1.15-4.28-0.29c-1.27,0.86-1.78,2.73-1.03,4.06
				c0.32,0.56,0.81,1,1.29,1.43c4.82,4.29,9.65,8.58,14.47,12.87c0.48,0.43,1.01,0.88,1.66,0.97c1.5,0.2,2.45-1.64,2.46-3.15
				c0.01-2.68-1.43-5.16-3.1-7.26c-3.03-3.82-6.96-6.91-11.39-8.96"/>
		</g>
		<g>
			<path class="st19" d="M1082.85,1272.24c-9.4-0.06-18.8,0.06-28.2,0.37c-0.56,0.02-1.2,0.07-1.56,0.5
				c-0.67,0.79,0.13,1.95,0.91,2.63c2.96,2.59,6.31,4.92,10.15,5.77c1.43,0.32,2.89,0.42,4.35,0.49c3.08,0.14,6.28,0.09,9.1-1.16
				c2.82-1.25,5.19-3.98,5.14-7.06"/>
		</g>
		<g>
			<path class="st19" d="M1098.18,1279.76c-1.95-0.25-3.75,1.1-5,2.61c-1.25,1.52-2.22,3.3-3.77,4.51
				c-1.45,1.13-3.27,1.66-5.07,2.05c-4.53,0.98-9.22,1.21-13.83,0.7c-1.46-0.16-3.49,0-3.68,1.46c-0.12,0.98,0.79,1.76,1.64,2.26
				c6.98,4.12,15.79,3.08,23.69,1.23c1.63-0.38,3.32-0.82,4.6-1.91c2.09-1.79,2.54-4.8,2.84-7.53c0.25-2.28,0.18-5.17-1.92-6.1"/>
		</g>
	</g>
	<g class="st12">
		<g>
			<path class="st13" d="M1075.01,764.8c-8-5.94-18.71-6.5-28.67-6.06c-7.04,0.31-14.89,1.44-19.25,6.98
				c-3.22,4.08-3.73,9.6-5.62,14.44c-6.61,17.01-28.86,23.62-35.98,40.42c-2.23,5.27-2.75,11.14-2.35,16.85
				c1.13,16.27,9.8,31.85,23.03,41.39c3.58,2.58,7.53,4.76,11.83,5.76c5.42,1.26,11.09,0.6,16.59-0.22
				c9.92-1.49,19.88-3.54,28.88-7.97s17.02-11.48,20.91-20.72c4.87-11.59,3.1-25.88,10.85-35.78c2.72-3.47,6.38-6.06,9.49-9.18
				c3.11-3.13,5.76-7.17,5.57-11.57c-0.2-4.46-3.28-8.28-6.74-11.11c-3.46-2.82-7.44-5.01-10.59-8.18
				c-5.23-5.28-8.52-13.44-15.74-15.19"/>
			<g>
				<path class="st14" d="M1078.03,759.62c-6.16-4.49-13.8-6.22-21.28-6.8c-6.79-0.52-14.03-0.33-20.68,1.16
					c-3.32,0.74-6.73,2.02-9.47,4.07c-3.61,2.69-5.95,6.03-7.62,10.19c-1.28,3.17-1.91,6.56-3.09,9.77
					c-0.09,0.23-0.57,1.42-0.15,0.44c0.42-0.97-0.05,0.09-0.15,0.31c-0.29,0.63-0.6,1.24-0.94,1.85c-0.64,1.15-1.36,2.26-2.13,3.33
					c-0.14,0.19-0.83,1.1-0.2,0.28c0.63-0.82-0.07,0.08-0.22,0.26c-0.44,0.53-0.89,1.06-1.35,1.57c-0.9,1-1.84,1.95-2.81,2.88
					c-2.02,1.93-4.15,3.73-6.31,5.5c-4.25,3.48-8.64,6.82-12.51,10.73c-4.56,4.6-8.27,9.96-10.27,16.16
					c-2.47,7.65-2.16,16.05-0.7,23.87c2.51,13.41,9.91,26.25,20.28,35.12c6.36,5.45,13.5,9.63,21.92,10.71
					c3.96,0.51,7.94,0.21,11.88-0.31c4.26-0.56,8.52-1.22,12.74-2.07c14.28-2.87,29.06-8.61,38.51-20.22
					c4.68-5.75,7.64-12.23,9.19-19.47c1.37-6.37,1.91-12.94,4.01-19.14c0.24-0.71,0.56-1.4,0.79-2.11c0.01-0.02-0.53,1.16-0.23,0.57
					c0.08-0.17,0.15-0.34,0.23-0.51c0.19-0.4,0.38-0.79,0.59-1.17c0.35-0.67,0.73-1.32,1.14-1.95c0.21-0.32,0.42-0.63,0.64-0.94
					c0.11-0.15,0.25-0.3,0.34-0.46c-0.19,0.32-0.68,0.83-0.17,0.25c2.37-2.68,5.12-4.9,7.73-7.34c5.95-5.56,10.77-13.89,7.55-22.18
					c-1.51-3.89-4-7.24-7.19-9.92c-1.65-1.39-3.4-2.66-5.16-3.9c-0.71-0.5-1.42-0.99-2.12-1.5c-0.35-0.25-0.7-0.51-1.05-0.76
					c-0.14-0.1-0.36-0.34-0.52-0.39c0.32,0.1,0.81,0.65,0.2,0.14c-1.25-1.05-2.44-2.15-3.51-3.39c-0.45-0.52-0.88-1.06-1.32-1.6
					c-0.41-0.5,0.44,0.57,0.4,0.53c-0.1-0.14-0.21-0.28-0.32-0.42c-0.25-0.32-0.49-0.65-0.73-0.98c-1.97-2.64-3.88-5.4-6.26-7.69
					c-2.51-2.42-5.5-4.33-8.89-5.2c-3.04-0.78-6.65,1-7.38,4.19c-0.71,3.13,0.94,6.54,4.19,7.38c0.32,0.08,0.64,0.17,0.96,0.28
					c0.73,0.25,0.75,0.66-0.22-0.12c0.47,0.38,1.17,0.6,1.68,0.95c0.44,0.29,0.97,0.97-0.17-0.18c0.22,0.23,0.51,0.42,0.75,0.63
					c0.49,0.44,0.96,0.9,1.42,1.39c0.46,0.49,0.91,1,1.34,1.52c0.22,0.26,0.43,0.53,0.65,0.8c0.8,0.98-0.85-1.14-0.09-0.12
					c0.84,1.12,1.67,2.24,2.51,3.35c2.08,2.72,4.17,5.29,6.85,7.43c1.64,1.31,3.33,2.54,5.05,3.75c0.71,0.5,1.42,1,2.12,1.51
					c0.23,0.17,0.46,0.34,0.7,0.51c0.52,0.4,0.46,0.35-0.19-0.15c0.22,0.17,0.43,0.35,0.64,0.52c0.61,0.51,1.2,1.05,1.76,1.62
					c0.42,0.42,1.43,1.21,1.6,1.79c-0.15-0.19-0.31-0.39-0.46-0.58c0.15,0.21,0.3,0.43,0.45,0.65c0.18,0.27,0.35,0.55,0.51,0.84
					c0.16,0.28,0.3,0.58,0.46,0.86c0.27,0.59,0.22,0.47-0.14-0.37c0.09,0.24,0.17,0.48,0.25,0.73c0.11,0.37,0.19,0.75,0.28,1.12
					c0.33,1.28,0.03-1.38-0.03-0.05c-0.02,0.39-0.01,0.8-0.02,1.19c-0.01,1.34,0.37-1.32-0.01-0.04c-0.05,0.18-0.39,1.89-0.56,1.89
					c0.1-0.23,0.2-0.47,0.3-0.7c-0.11,0.24-0.22,0.48-0.35,0.72c-0.24,0.48-0.51,0.94-0.8,1.4c-0.22,0.34-0.46,0.67-0.68,1.01
					c-0.78,1.16,0.87-0.97-0.06,0.07c-0.54,0.6-1.06,1.22-1.64,1.79c-1.2,1.21-2.49,2.34-3.77,3.47c-2.82,2.49-5.43,5.04-7.56,8.16
					c-3.67,5.37-5.22,11.91-6.34,18.22c-0.55,3.08-1.02,6.18-1.67,9.24c-0.3,1.39-0.63,2.78-1.02,4.15
					c-0.21,0.74-0.44,1.48-0.7,2.21c-0.13,0.36-0.26,0.73-0.39,1.09c-0.09,0.24-0.19,0.48-0.28,0.72c0.36-0.84,0.41-0.96,0.15-0.37
					c-0.6,1.27-1.23,2.52-1.97,3.73c-0.4,0.65-0.82,1.29-1.26,1.92c-0.04,0.06-0.68,0.93-0.67,0.93c0.55-0.71,0.63-0.81,0.24-0.3
					c-0.16,0.2-0.32,0.4-0.48,0.59c-0.9,1.08-1.86,2.12-2.87,3.11c-0.55,0.54-1.12,1.06-1.7,1.57c-0.29,0.26-0.58,0.51-0.88,0.75
					c-0.26,0.22-0.87,0.92-1.21,0.97c0.2-0.16,0.4-0.31,0.6-0.47c-0.21,0.16-0.41,0.31-0.62,0.46c-0.31,0.23-0.63,0.45-0.95,0.67
					c-0.53,0.37-1.07,0.73-1.62,1.07c-1.42,0.9-2.87,1.73-4.37,2.5c-0.63,0.32-1.28,0.63-1.92,0.94c-0.41,0.19-0.83,0.37-1.24,0.56
					c-1.41,0.64,1.2-0.46-0.24,0.1c-1.84,0.71-3.68,1.39-5.56,1.98c-3.48,1.09-7.03,1.95-10.61,2.66c-1.64,0.33-3.29,0.62-4.95,0.9
					c-0.9,0.15-1.8,0.29-2.7,0.43c-0.46,0.07-0.92,0.14-1.37,0.21c-0.34,0.05-2.32,0.52-0.78,0.12c-1.63,0.43-3.56,0.41-5.24,0.48
					c-0.95,0.04-1.9,0.06-2.86,0.03c-0.47-0.01-0.95-0.04-1.42-0.07c-0.32-0.02-0.63-0.05-0.94-0.08c-0.69-0.08-0.63-0.07,0.18,0.03
					c-1.48,0.06-3.35-0.71-4.73-1.21c-0.39-0.14-0.83-0.27-1.19-0.46c1.42,0.76,0.16,0.05-0.13-0.09c-0.84-0.4-1.65-0.84-2.46-1.3
					c-1.41-0.82-2.77-1.72-4.08-2.68c-0.22-0.16-0.8-0.46-0.93-0.7c0.2,0.15,0.4,0.31,0.6,0.46c-0.2-0.16-0.4-0.32-0.61-0.49
					c-0.6-0.49-1.19-0.99-1.77-1.51c-2.32-2.06-4.46-4.32-6.41-6.74c-0.08-0.1-0.16-0.2-0.24-0.3c-0.4-0.5-0.32-0.41,0.22,0.3
					c-0.15-0.03-0.6-0.8-0.69-0.93c-0.46-0.63-0.9-1.26-1.33-1.91c-0.86-1.29-1.67-2.62-2.43-3.97c-0.75-1.36-1.45-2.74-2.1-4.16
					c-0.03-0.08-0.44-1.07-0.47-1.06c0.1,0.24,0.2,0.48,0.3,0.72c-0.1-0.24-0.2-0.48-0.29-0.72c-0.29-0.72-0.56-1.45-0.82-2.18
					c-1.03-2.93-1.82-5.94-2.35-8.99c-0.07-0.38-0.12-0.77-0.19-1.15c-0.23-1.37,0.16,1.44,0.01,0.06
					c-0.08-0.77-0.17-1.54-0.23-2.32c-0.14-1.79-0.19-3.58-0.12-5.37c0.03-0.91,0.09-1.81,0.18-2.71c0.04-0.42-0.07-1.71,0.01-0.2
					c-0.02-0.41,0.15-0.94,0.23-1.33c0.34-1.78,0.87-3.48,1.47-5.19c0.5-1.44-0.53,1.1-0.01,0c0.14-0.29,0.27-0.58,0.41-0.87
					c0.28-0.57,0.58-1.14,0.9-1.69c0.64-1.11,1.36-2.15,2.1-3.19c0.7-0.98-0.92,1.14-0.16,0.2c0.2-0.25,0.4-0.5,0.6-0.74
					c0.41-0.49,0.83-0.98,1.26-1.45c0.87-0.96,1.78-1.88,2.71-2.77c1.9-1.82,3.9-3.53,5.94-5.2c4.07-3.35,8.29-6.55,12.08-10.23
					c3.93-3.82,7.47-8.23,9.64-13.29c1.41-3.3,2.24-6.71,3.33-10.11c0.22-0.7,0.48-1.38,0.73-2.06c0.3-0.81-0.67,1.34-0.06,0.16
					c0.18-0.35,0.35-0.71,0.54-1.05c0.19-0.34,0.39-0.68,0.61-1.01c0.07-0.11,0.15-0.22,0.22-0.33c0.39-0.53,0.31-0.43-0.24,0.29
					c0.22,0.01,1.52-1.54,1.76-1.77c0.94-0.85-1.16,0.77-0.09,0.08c0.2-0.13,0.39-0.26,0.59-0.39c0.61-0.38,1.24-0.69,1.87-1.01
					c1.15-0.59-1.34,0.47-0.11,0.04c0.34-0.12,0.68-0.25,1.02-0.37c0.81-0.27,1.64-0.49,2.47-0.69c0.6-0.14,1.21-0.26,1.82-0.37
					c0.35-0.06,0.78-0.06,1.11-0.18c-1.47,0.5-0.69,0.09-0.11,0.02c1.61-0.18,3.22-0.28,4.84-0.35c3.27-0.14,6.55-0.16,9.81,0.08
					c0.68,0.05,1.36,0.11,2.03,0.18c0.14,0.02,0.27,0.03,0.4,0.05c0.67,0.08,0.54,0.06-0.39-0.06c0.12-0.09,1.04,0.16,1.2,0.19
					c1.65,0.28,3.29,0.65,4.89,1.13c0.7,0.21,1.39,0.45,2.07,0.7c0.12,0.05,0.25,0.1,0.37,0.14c0.6,0.24,0.49,0.19-0.33-0.15
					c0.14-0.06,0.93,0.43,1.08,0.5c1.44,0.71,2.8,1.54,4.09,2.48c2.54,1.86,6.8,0.51,8.21-2.15
					C1081.83,764.71,1080.75,761.6,1078.03,759.62L1078.03,759.62z"/>
			</g>
		</g>
		<g>
			<path class="st20" d="M1071.86,774.88c-4.22-2.29-9,1.49-12.67,4.58c-7.85,6.62-17.23,11.1-26.28,15.96
				c-9.05,4.86-18.06,10.34-24.47,18.36c-6.41,8.02-9.82,19.12-6.39,28.79c1.61,4.53,4.57,8.45,7.68,12.13
				c6.44,7.64,15.39,15.18,25.23,13.42c3.67-0.66,6.98-2.57,10.15-4.53c5.94-3.66,11.73-7.57,17.34-11.72
				c2.43-1.8,4.89-3.71,6.37-6.35c2.8-4.98,1.47-11.19,2.46-16.82c1.59-8.95,8.94-15.83,11.6-24.52
				c3.27-10.68-1.85-23.32-11.64-28.71"/>
		</g>
		<g>
			<path class="st21" d="M1063.97,804.5c-1.58-2.48-5.24-2.89-7.89-1.62c-2.65,1.27-4.48,3.77-6.04,6.26
				c-1.56,2.49-3.02,5.14-5.29,7c-2.6,2.14-6.03,3.05-8.71,5.1c-2.49,1.91-4.15,4.67-5.75,7.37c-1.28,2.15-2.6,4.49-2.4,6.99
				c0.31,3.76,3.86,6.29,7.06,8.28c0.91,0.57,1.88,1.15,2.95,1.21c0.74,0.04,1.47-0.18,2.17-0.42c4.69-1.57,9.21-4.08,12.26-7.97
				c3.05-3.89,4.38-8.82,6.5-13.28c1.73-3.63,4.01-6.99,6.74-9.93c1.36-1.47,2.96-3.16,2.7-5.14c-0.27-2.11-2.46-3.33-4.39-4.22"/>
			<g>
				<path class="st22" d="M1067.86,802.23c-3.18-4.63-9.13-5.65-14.05-3.23c-4.7,2.31-6.99,7.14-9.79,11.26
					c-0.16,0.23-0.33,0.45-0.48,0.69c-0.38,0.59,0.41-0.44-0.06,0.08c-0.37,0.42-0.72,0.84-1.12,1.23c-0.2,0.19-0.42,0.37-0.62,0.56
					c-0.49,0.48,0.52-0.3-0.05,0.04c-0.52,0.3-1.01,0.66-1.54,0.95c-1.94,1.08-4.04,1.91-5.87,3.19c-4.15,2.9-7.24,7.54-9.35,12.09
					c-1.28,2.77-1.96,5.73-1.18,8.76c0.64,2.46,2.22,4.68,4.09,6.37c1.71,1.54,3.7,2.96,5.73,4.06c2.95,1.61,5.78,1.46,8.85,0.32
					c4.57-1.7,9.05-4.12,12.34-7.81c3.49-3.91,5.26-8.7,7.23-13.47c-0.29,0.69-0.01,0.02,0.04-0.1c0.17-0.39,0.34-0.78,0.52-1.16
					c0.27-0.58,0.56-1.16,0.85-1.73c0.63-1.21,1.33-2.38,2.08-3.52c0.36-0.54,0.73-1.07,1.11-1.59c0.06-0.08,0.6-0.79,0.3-0.4
					c-0.3,0.38,0.39-0.48,0.45-0.55c0.83-1,1.75-1.91,2.58-2.91c2.12-2.56,3.72-5.8,2.43-9.16c-1.1-2.89-3.47-4.7-6.19-5.98
					c-2.13-1-4.95-0.67-6.16,1.61c-1.05,1.99-0.66,5.09,1.61,6.16c0.74,0.34,1.44,0.72,2.13,1.15c0.72,0.45-0.46-0.42,0.15,0.14
					c0.57,0.52,0.02-0.02-0.08-0.17c0.31,0.47,0.07,0.06-0.03-0.22c0.1,0.3,0.05,0.68,0.01-0.19c0-0.09,0.24-0.76,0.05-0.3
					c-0.19,0.47,0.13-0.18,0.15-0.22c-0.1,0.23-0.24,0.44-0.36,0.65c-0.39,0.71,0.32-0.3-0.22,0.32c-0.34,0.39-0.69,0.77-1.03,1.14
					c-2.87,3.13-5.38,6.64-7.25,10.46c-0.98,2.01-1.8,4.09-2.65,6.16c-0.11,0.26-0.22,0.53-0.32,0.79c-0.01,0.03-0.28,0.68-0.1,0.25
					c0.2-0.47-0.15,0.34-0.19,0.44c-0.09,0.19-0.17,0.39-0.26,0.58c-0.41,0.9-0.84,1.78-1.32,2.64c-0.48,0.86-1,1.7-1.59,2.48
					c0.46-0.61-0.31,0.33-0.46,0.49c-0.36,0.39-0.73,0.77-1.12,1.13c-0.29,0.27-0.61,0.51-0.9,0.79c-0.49,0.47,0.53-0.37-0.03,0.04
					c-0.16,0.12-0.32,0.24-0.48,0.35c-0.82,0.58-1.68,1.1-2.56,1.58c-0.77,0.42-1.55,0.79-2.35,1.15c0.77-0.35-0.36,0.14-0.6,0.23
					c-0.51,0.19-1.02,0.38-1.54,0.54c-0.21,0.07-0.43,0.13-0.64,0.19c0.42-0.11,0.39,0.26-0.12,0c0.08,0.04,0.73,0.01,0.22-0.03
					c-0.44-0.04,0.02-0.03,0.15,0.06c-0.81-0.52-1.65-0.98-2.45-1.52c-0.37-0.25-0.72-0.51-1.08-0.76c0.63,0.43-0.02-0.02-0.27-0.23
					c-0.33-0.28-0.64-0.57-0.95-0.88c-0.13-0.13-0.25-0.27-0.38-0.4c-0.75-0.78,0.22,0.44-0.08-0.07c-0.2-0.35-0.41-0.72-0.63-1.06
					c0.04,0.06,0.23,0.74,0.12,0.27c-0.04-0.16-0.1-0.34-0.15-0.5c-0.24-0.75-0.02-0.07-0.02,0.14c-0.01-0.2,0.02-0.46-0.02-0.66
					c-0.08-0.42-0.03-0.06-0.06,0.12c0.05-0.36,0.16-0.71,0.26-1.06c0.06-0.21,0.14-0.42,0.21-0.62c-0.23,0.64,0.02-0.04,0.08-0.15
					c0.21-0.4,0.41-0.8,0.63-1.19c0.52-0.93,1.07-1.84,1.63-2.74c0.47-0.76,0.96-1.5,1.47-2.23c0.5-0.71,0.16-0.21,0.04-0.07
					c0.13-0.16,0.26-0.31,0.39-0.47c0.35-0.41,0.72-0.81,1.12-1.18c0.18-0.17,1.15-0.93,0.49-0.47c0.38-0.27,0.78-0.53,1.18-0.77
					c0.81-0.48,1.66-0.91,2.51-1.33c1.94-0.97,3.75-1.97,5.44-3.34c1.92-1.55,3.39-3.64,4.7-5.71c0.56-0.88,1.1-1.79,1.66-2.67
					c0.29-0.45,0.59-0.9,0.9-1.35c0.16-0.22,0.31-0.44,0.48-0.66c-0.28,0.36-0.19,0.23,0.05-0.03c0.36-0.4,0.71-0.79,1.1-1.16
					c0.14-0.14,0.3-0.26,0.44-0.4c0.34-0.33-0.5,0.27,0.2-0.13c0.17-0.1,0.34-0.21,0.51-0.31c0.17-0.1,0.35-0.19,0.53-0.28
					c-0.16,0.07-0.31,0.13-0.47,0.2c0.1-0.13,1.15-0.39,1.28-0.34c0.04,0.01-0.91-0.01-0.37,0.07c0.2,0.03,0.46-0.01,0.66-0.01
					c0.24,0,0.79,0.21,0.22,0c-0.61-0.22,0.06,0.04,0.2,0.08c0.19,0.06,0.73,0.37,0.21,0.05c-0.57-0.35,0.1,0.07,0.17,0.13
					c0.35,0.32-0.22-0.24-0.28-0.24c0.18-0.02,0.86,1.13,0.12,0.06c1.33,1.94,4.01,3,6.16,1.61
					C1068.17,807.14,1069.29,804.3,1067.86,802.23L1067.86,802.23z"/>
			</g>
		</g>
	</g>
	<path class="st23" d="M1068.31,1168.6c0,0-38,23-32,69C1036.31,1237.6,1080.31,1238.6,1068.31,1168.6z"/>
	<path class="st24" d="M919.31,1208.6c0,0,0,4,0,23s32,57,49,75l6,8h25c0,0-8-8-13-35S936.31,1214.6,919.31,1208.6z"/>
	<path class="st25" d="M999.31,1313.6c0,0-47-53-105-34C894.31,1279.6,911.31,1328.6,999.31,1313.6z"/>
</g>
<g>
	<defs>
		<path id="SVGID_6_" d="M1178.31,884.68V662.52c0-19.47-21.2-35.33-47-35.33l0,0c-25.9,0-47,15.94-47,35.33V884.6L1178.31,884.68z"
			/>
	</defs>
	<clipPath id="SVGID_7_">
		<use xlink:href="#SVGID_6_"  style="overflow:visible;"/>
	</clipPath>
	<path class="st26" d="M1129.18,701.19c0,0-56.2,46.27-36.7,93.73l-25.52-17.6c0,0-0.2-40.22,46.58-86.92L1129.18,701.19z"/>
	<g class="st27">
		<g>
			<path class="st13" d="M1238.37,683.48c-5.56-1.3-8.78-7.38-9.26-13.07s1.04-11.35,1.34-17.06c0.59-10.95-3.25-21.61-7.36-31.77
				c-4.19-10.35-9.4-21.29-19.26-26.51c-6.21-3.29-13.57-3.84-20.53-2.85c-6.95,0.99-13.61,3.41-20.21,5.82
				c-5.99,2.19-12.29,4.59-16.27,9.57c-6.14,7.68-4.86,18.86-8.67,27.91c-3.84,9.12-12.42,15.22-18.54,22.99
				c-13.15,16.69-13.62,42.19-1.09,59.34c4.36,5.97,10,10.87,15.73,15.53c7.38,6,15.07,11.72,23.62,15.89
				c12.14,5.91,25.66,8.5,39.13,9.45c6.74,0.48,13.65,0.53,20.06-1.6c7.35-2.45,13.53-7.64,18.42-13.64
				c6.87-8.41,11.55-18.74,12.52-29.56c0.97-10.82-1.95-22.08-8.71-30.59"/>
			<g>
				<path class="st14" d="M1239.96,677.69c-0.38-0.1-0.76-0.23-1.13-0.34c-0.71-0.22,1.13,0.62,0.52,0.21
					c-0.13-0.09-0.3-0.15-0.44-0.23c-0.34-0.19-0.64-0.44-0.97-0.62c-0.64-0.35,0.92,0.86,0.44,0.32c-0.15-0.16-0.33-0.3-0.49-0.45
					c-0.28-0.27-0.54-0.57-0.8-0.86c-0.65-0.73,0.75,1.09,0.02-0.01c-0.49-0.73-0.81-1.53-1.25-2.27c0.86,1.43,0.15,0.34-0.04-0.2
					c-0.11-0.33-0.22-0.67-0.31-1.01c-0.12-0.45-0.23-0.91-0.32-1.36c-0.03-0.17-0.06-0.35-0.09-0.51c-0.16-0.7,0.14,1.61,0.05,0.39
					c-0.17-2.26-0.12-4.49,0.1-6.74c0.45-4.56,1.34-9.06,1.26-13.66c-0.08-4.89-0.89-9.82-2.12-14.55
					c-2.19-8.42-5.57-16.73-9.29-24.59c-3.49-7.35-8.08-14.1-14.63-19.03c-15.48-11.64-35.93-5.04-52.09,1.23
					c-8.1,3.14-15.84,7.5-19.49,15.83c-1.69,3.85-2.63,7.8-3.37,11.92c-0.66,3.69-1.25,7.41-2.47,10.97
					c-0.15,0.42-0.31,0.84-0.47,1.26c-0.27,0.75,0.5-1.09,0.15-0.37c-0.08,0.17-0.16,0.35-0.24,0.53c-0.41,0.87-0.87,1.72-1.37,2.55
					c-0.46,0.77-0.96,1.52-1.47,2.26c-0.26,0.36-0.56,0.71-0.8,1.09c0.87-1.39,0.03-0.05-0.26,0.31c-2.45,2.99-5.2,5.7-7.88,8.49
					c-2.85,2.97-5.58,6.06-7.93,9.45c-2.29,3.31-4.03,6.9-5.52,10.62c-5.78,14.41-4.89,31.18,1.69,45.15
					c3.6,7.63,9.34,14.04,15.62,19.58c6.77,5.97,13.98,11.67,21.61,16.52c15.81,10.06,34.13,14.21,52.67,15.26
					c9.47,0.54,18.99-0.46,27.33-5.3c7.59-4.42,13.75-11.17,18.48-18.51c9.39-14.58,12.7-33.6,5.93-49.92
					c-1.82-4.4-4.1-8.27-7.04-12.02c-0.88-1.12-2.89-1.76-4.24-1.76c-1.47,0-3.23,0.65-4.24,1.76c-1.05,1.14-1.83,2.64-1.76,4.24
					c0.08,1.69,0.72,2.92,1.76,4.24c-0.1-0.12-0.8-1.08-0.19-0.23c0.12,0.17,0.24,0.33,0.36,0.5c0.28,0.39,0.55,0.78,0.82,1.19
					c0.53,0.8,1.03,1.62,1.5,2.46c0.47,0.84,0.91,1.69,1.32,2.56c0.17,0.36,0.3,0.79,0.51,1.12c-0.65-1-0.29-0.71-0.13-0.29
					c0.1,0.26,0.2,0.51,0.3,0.77c0.68,1.8,1.24,3.64,1.67,5.52c0.22,0.94,0.41,1.88,0.56,2.83c0.03,0.2,0.06,0.41,0.1,0.61
					c0.15,0.83-0.14-1.2-0.04-0.37c0.06,0.55,0.13,1.09,0.17,1.64c0.17,1.92,0.21,3.85,0.14,5.78c-0.04,0.9-0.1,1.79-0.18,2.69
					c-0.03,0.28-0.06,0.56-0.09,0.84c-0.02,0.17-0.12,0.9,0,0.04c0.12-0.86,0.02-0.13-0.01,0.04c-0.06,0.35-0.11,0.69-0.17,1.04
					c-0.34,1.94-0.79,3.86-1.36,5.75c-0.26,0.88-0.55,1.75-0.85,2.61c-0.17,0.46-0.34,0.93-0.51,1.39c-0.08,0.2-0.16,0.39-0.23,0.59
					c-0.51,1.31,0.37-0.82,0.04-0.07c-1.61,3.62-3.51,7.08-5.79,10.33c-0.28,0.4-0.57,0.81-0.87,1.2c-0.13,0.17-0.26,0.34-0.38,0.51
					c-0.49,0.67,0.68-0.85,0.16-0.21c-0.61,0.75-1.21,1.5-1.85,2.23c-1.3,1.49-2.68,2.92-4.14,4.26c-0.65,0.6-1.32,1.18-2.01,1.74
					c-0.15,0.12-0.35,0.24-0.48,0.38c0.81-0.87,0.59-0.45,0.24-0.19c-0.44,0.32-0.88,0.64-1.33,0.94c-1.56,1.07-3.21,2.02-4.92,2.82
					c-0.18,0.09-0.37,0.16-0.55,0.25c-0.6,0.29,0.49-0.2,0.5-0.21c-0.44,0.1-0.9,0.35-1.33,0.51c-1.06,0.38-2.13,0.69-3.23,0.95
					c-0.97,0.23-1.94,0.39-2.92,0.57c-0.86,0.16,1.11-0.12,0.23-0.03c-0.23,0.02-0.46,0.05-0.68,0.08
					c-0.61,0.06-1.22,0.12-1.83,0.16c-4.29,0.28-8.6,0.04-12.88-0.33c-2.12-0.18-4.24-0.41-6.35-0.67c-0.82-0.1-0.08-0.25,0.24,0.03
					c-0.09-0.08-0.55-0.08-0.68-0.1c-0.53-0.08-1.05-0.15-1.58-0.24c-1.05-0.17-2.1-0.34-3.15-0.54c-4.25-0.78-8.46-1.8-12.58-3.11
					c-2.02-0.64-4.01-1.35-5.98-2.14c-0.2-0.08-1.49-0.59-0.75-0.3c0.77,0.3-0.73-0.33-0.95-0.42c-1.03-0.47-2.06-0.96-3.07-1.47
					c-3.77-1.9-7.38-4.11-10.86-6.5c-1.75-1.2-3.46-2.44-5.15-3.71c-0.42-0.32-0.84-0.64-1.26-0.96c-0.1-0.08-0.72-0.54-0.11-0.08
					c0.65,0.49-0.13-0.11-0.29-0.23c-0.83-0.65-1.66-1.31-2.49-1.97c-3.3-2.65-6.56-5.35-9.62-8.27c-1.49-1.43-2.94-2.91-4.3-4.46
					c-0.63-0.72-1.23-1.47-1.84-2.21c-0.44-0.54,0.26,0.34,0.26,0.34c-0.07-0.01-0.45-0.6-0.53-0.71c-0.29-0.4-0.57-0.8-0.85-1.2
					c-0.96-1.42-1.84-2.89-2.64-4.4c-0.37-0.7-0.72-1.42-1.05-2.14c-0.18-0.39-0.34-0.79-0.52-1.17c-0.02-0.04,0.49,1.21,0.25,0.59
					c-0.11-0.29-0.23-0.57-0.34-0.85c-1.23-3.2-2.12-6.52-2.67-9.9c-0.05-0.28-0.25-1.67-0.11-0.66c0.15,1.07-0.05-0.45-0.07-0.66
					c-0.09-0.85-0.16-1.71-0.21-2.57c-0.1-1.71-0.11-3.43-0.03-5.15c0.04-0.86,0.09-1.71,0.17-2.57c0.04-0.43,0.08-0.85,0.13-1.28
					c0.16-1.38-0.16,0.97,0-0.04c0.28-1.76,0.61-3.5,1.06-5.22c0.43-1.66,0.94-3.29,1.53-4.9c0.13-0.34,0.26-0.69,0.39-1.03
					c0.54-1.37-0.41,0.88,0.03-0.09c0.38-0.84,0.76-1.67,1.17-2.48c0.77-1.53,1.63-3.01,2.57-4.44c0.44-0.67,0.89-1.32,1.36-1.96
					c0.1-0.13,0.37-0.41,0.44-0.59c0-0.01-0.79,0.99-0.37,0.48c0.33-0.4,0.66-0.81,0.99-1.21c5-5.95,10.96-10.99,15.38-17.44
					c2.25-3.28,3.9-6.99,4.95-10.83c0.96-3.5,1.46-7.11,2.14-10.67c0.34-1.75,0.71-3.5,1.21-5.22c0.25-0.84,0.54-1.67,0.84-2.49
					c0.38-1.03-0.51,1.04-0.02,0.06c0.22-0.45,0.43-0.9,0.67-1.33c0.4-0.73,1.09-1.46,1.4-2.22c0,0-0.79,0.94-0.35,0.46
					c0.13-0.14,0.25-0.3,0.38-0.45c0.34-0.39,0.69-0.76,1.06-1.12c0.32-0.31,0.65-0.61,1-0.9c0.14-0.12,0.33-0.23,0.44-0.37
					c-0.74,0.86-0.7,0.52-0.3,0.24c0.74-0.52,1.49-1.02,2.27-1.48c0.79-0.46,1.6-0.89,2.42-1.28c0.41-0.2,0.83-0.39,1.25-0.58
					c0.18-0.08,0.36-0.16,0.54-0.24c0.72-0.32-0.04,0.05-0.34,0.14c1.84-0.59,3.63-1.41,5.44-2.07c4.11-1.5,8.23-2.98,12.46-4.11
					c2.11-0.56,4.24-1.03,6.4-1.37c0.19-0.03,0.52-0.02,0.69-0.1c-0.13,0.06-1.43,0.16-0.31,0.05c0.43-0.04,0.86-0.09,1.29-0.13
					c1.08-0.09,2.16-0.14,3.24-0.15c0.94-0.01,1.87,0.02,2.81,0.08c0.5,0.03,1,0.1,1.5,0.13c0.85,0.06-1.16-0.19-0.32-0.05
					c0.28,0.05,0.57,0.09,0.85,0.14c1.98,0.35,3.87,0.92,5.76,1.61c0.78,0.28-0.99-0.48-0.25-0.1c0.19,0.1,0.39,0.18,0.58,0.27
					c0.43,0.21,0.85,0.43,1.26,0.66c0.76,0.42,1.49,0.88,2.21,1.38c0.2,0.14,0.4,0.29,0.6,0.43c0.53,0.35-0.48-0.38-0.48-0.38
					c0.19,0.31,0.71,0.57,0.99,0.82c0.7,0.6,1.37,1.23,2.01,1.89c0.56,0.57,1.09,1.17,1.61,1.78c0.22,0.26,0.53,0.88,0.82,1.01
					c0.01,0-0.74-1-0.37-0.48c0.18,0.25,0.37,0.5,0.55,0.75c1.03,1.43,1.97,2.92,2.85,4.45c0.89,1.55,1.71,3.13,2.48,4.74
					c0.36,0.75,0.71,1.5,1.05,2.26c0.18,0.41,0.36,0.82,0.54,1.22c0.08,0.17,0.15,0.35,0.23,0.53c0.36,0.83,0.13,0.32-0.08-0.21
					c1.56,3.84,3.13,7.67,4.48,11.59c1.41,4.09,2.59,8.27,3.29,12.54c0.04,0.27,0.14,0.63,0.14,0.91c0-0.03-0.14-1.16-0.06-0.46
					c0.06,0.53,0.12,1.06,0.17,1.6c0.1,1.07,0.16,2.14,0.18,3.21c0.05,2.27-0.1,4.53-0.37,6.79c-0.52,4.4-1.37,8.81-1.04,13.26
					c0.3,4.05,1.37,8.18,3.65,11.59c2.4,3.59,5.78,6.43,10.03,7.51c3.04,0.77,6.65-0.99,7.38-4.19
					C1244.86,681.96,1243.22,678.52,1239.96,677.69L1239.96,677.69z"/>
			</g>
		</g>
		<g>
			<path class="st18" d="M1206.55,672.94c-1.55-5.9-8.71-9.13-9.9-15.12c-0.57-2.86,0.36-5.8,0.24-8.72
				c-0.1-2.26-0.84-4.45-1.77-6.51c-1.51-3.33-3.64-6.49-6.68-8.51c-3.82-2.55-8.95-3.02-13.18-1.21s-7.42,5.85-8.22,10.37
				c-0.35,2.02-0.26,4.11-0.8,6.08c-0.67,2.45-2.25,4.53-3.87,6.49c-5.59,6.79-12.03,13.08-15.79,21.03
				c-4.68,9.9-4.61,21.91,0.19,31.75c1.18,2.42,2.66,4.74,4.73,6.45c2.9,2.39,6.7,3.37,10.43,3.84c3.3,0.41,6.72,0.46,9.87-0.59
				c2.63-0.88,4.94-2.47,7.2-4.08c5.3-3.77,10.49-7.7,15.56-11.77c4.28-3.44,8.62-7.18,10.81-12.22c2.26-5.19,1.96-11.09,1.62-16.74
				"/>
		</g>
		<g>
			<path class="st19" d="M1191.97,671.87c-0.83-3.01,0.57-6.17,0.41-9.29c-0.13-2.48-1.25-4.8-2.48-6.95
				c-1.57-2.75-3.8-5.65-6.96-5.89c-0.54-0.04-1.14,0.02-1.54,0.39c-0.54,0.5-0.51,1.34-0.44,2.07c0.78,8.38,2.09,16.71,3.4,25.02
				c0.11,0.71,0.26,1.48,0.82,1.93c0.9,0.71,2.23,0.15,3.09-0.62c1.65-1.47,2.65-3.64,2.71-5.85"/>
		</g>
		<g>
			<path class="st19" d="M1193.85,691.12c0.95-1.2,1.06-3.04,0.16-4.29c-0.9-1.24-2.78-1.7-4.09-0.91
				c-0.55,0.33-0.98,0.84-1.39,1.33c-4.14,4.95-8.29,9.9-12.43,14.85c-0.42,0.5-0.85,1.04-0.92,1.68c-0.15,1.5,1.71,2.4,3.22,2.36
				c2.68-0.07,5.11-1.58,7.17-3.31c3.73-3.14,6.7-7.17,8.61-11.65"/>
		</g>
		<g>
			<path class="st19" d="M1178.15,690.7c-0.22-9.4-0.62-18.79-1.21-28.17c-0.04-0.56-0.11-1.19-0.55-1.54
				c-0.81-0.65-1.94,0.19-2.6,0.99c-2.5,3.03-4.73,6.45-5.47,10.32c-0.27,1.43-0.33,2.9-0.36,4.36c-0.05,3.08,0.1,6.28,1.43,9.06
				c1.34,2.78,4.13,5.07,7.21,4.92"/>
		</g>
		<g>
			<path class="st19" d="M1171.1,706.25c0.19-1.96-1.21-3.72-2.76-4.92c-1.55-1.2-3.37-2.12-4.62-3.63
				c-1.18-1.41-1.76-3.22-2.2-5.01c-1.11-4.5-1.49-9.18-1.12-13.81c0.12-1.47-0.11-3.49-1.57-3.63c-0.98-0.09-1.74,0.84-2.21,1.71
				c-3.91,7.1-2.6,15.88-0.52,23.71c0.43,1.62,0.92,3.3,2.05,4.54c1.85,2.04,4.87,2.39,7.61,2.61c2.28,0.18,5.17,0.02,6.04-2.1"/>
		</g>
	</g>
	<g class="st27">
		<g>
			<path class="st13" d="M1075.01,764.87c-8-5.94-18.71-6.5-28.67-6.06c-7.04,0.31-14.89,1.44-19.25,6.98
				c-3.22,4.08-3.73,9.6-5.62,14.44c-6.61,17.01-28.86,23.62-35.98,40.42c-2.23,5.27-2.75,11.14-2.35,16.85
				c1.13,16.27,9.8,31.85,23.03,41.39c3.58,2.58,7.53,4.76,11.83,5.76c5.42,1.26,11.09,0.6,16.59-0.22
				c9.92-1.49,19.88-3.54,28.88-7.97c9-4.43,17.02-11.48,20.91-20.72c4.87-11.59,3.1-25.88,10.85-35.78
				c2.72-3.47,6.38-6.06,9.49-9.18c3.11-3.13,5.76-7.17,5.57-11.57c-0.2-4.46-3.28-8.28-6.74-11.11s-7.44-5.01-10.59-8.18
				c-5.23-5.28-8.52-13.44-15.74-15.19"/>
			<g>
				<path class="st14" d="M1078.03,759.69c-6.16-4.49-13.8-6.23-21.28-6.8c-6.79-0.52-14.03-0.33-20.68,1.16
					c-3.32,0.74-6.73,2.02-9.47,4.07c-3.61,2.69-5.95,6.03-7.62,10.19c-1.28,3.17-1.91,6.56-3.09,9.77
					c-0.09,0.23-0.57,1.42-0.15,0.44c0.42-0.97-0.05,0.09-0.15,0.31c-0.29,0.63-0.6,1.24-0.94,1.85c-0.64,1.15-1.36,2.26-2.13,3.33
					c-0.14,0.19-0.83,1.1-0.2,0.28c0.63-0.82-0.07,0.08-0.22,0.26c-0.44,0.53-0.89,1.06-1.35,1.57c-0.9,1-1.84,1.95-2.81,2.88
					c-2.02,1.93-4.15,3.73-6.31,5.5c-4.25,3.48-8.64,6.82-12.51,10.73c-4.56,4.6-8.27,9.96-10.27,16.16
					c-2.47,7.65-2.16,16.05-0.7,23.87c2.51,13.41,9.91,26.25,20.28,35.12c6.36,5.45,13.5,9.63,21.92,10.71
					c3.96,0.51,7.94,0.21,11.88-0.31c4.26-0.56,8.52-1.22,12.74-2.07c14.28-2.87,29.06-8.61,38.51-20.22
					c4.68-5.75,7.64-12.23,9.19-19.47c1.37-6.37,1.91-12.94,4.01-19.14c0.24-0.71,0.56-1.4,0.79-2.11c0.01-0.02-0.53,1.16-0.23,0.57
					c0.08-0.17,0.15-0.34,0.23-0.51c0.19-0.4,0.38-0.79,0.59-1.17c0.35-0.67,0.73-1.32,1.14-1.95c0.21-0.32,0.42-0.63,0.64-0.94
					c0.11-0.15,0.25-0.3,0.34-0.46c-0.19,0.32-0.68,0.83-0.17,0.25c2.37-2.68,5.12-4.9,7.73-7.34c5.95-5.56,10.77-13.89,7.55-22.18
					c-1.51-3.88-4-7.24-7.19-9.92c-1.65-1.39-3.4-2.66-5.16-3.9c-0.71-0.5-1.42-0.99-2.12-1.5c-0.35-0.25-0.7-0.51-1.05-0.76
					c-0.14-0.1-0.36-0.34-0.52-0.39c0.32,0.1,0.81,0.65,0.2,0.14c-1.25-1.05-2.44-2.15-3.51-3.39c-0.45-0.52-0.88-1.06-1.32-1.6
					c-0.41-0.5,0.44,0.57,0.4,0.53c-0.1-0.14-0.21-0.28-0.32-0.42c-0.25-0.32-0.49-0.65-0.73-0.98c-1.97-2.64-3.88-5.4-6.26-7.69
					c-2.51-2.42-5.5-4.33-8.89-5.2c-3.04-0.78-6.65,1-7.38,4.19c-0.71,3.13,0.94,6.54,4.19,7.38c0.32,0.08,0.64,0.17,0.96,0.28
					c0.73,0.25,0.75,0.66-0.22-0.12c0.47,0.38,1.17,0.6,1.68,0.95c0.44,0.29,0.97,0.97-0.17-0.18c0.22,0.23,0.51,0.42,0.75,0.63
					c0.49,0.44,0.96,0.9,1.42,1.39c0.46,0.49,0.91,1,1.34,1.52c0.22,0.26,0.43,0.53,0.65,0.8c0.8,0.98-0.85-1.14-0.09-0.12
					c0.84,1.12,1.67,2.24,2.51,3.35c2.08,2.72,4.17,5.29,6.85,7.43c1.64,1.31,3.33,2.54,5.05,3.75c0.71,0.5,1.42,1,2.12,1.51
					c0.23,0.17,0.46,0.34,0.7,0.51c0.52,0.4,0.46,0.35-0.19-0.15c0.22,0.17,0.43,0.35,0.64,0.52c0.61,0.51,1.2,1.05,1.76,1.62
					c0.42,0.42,1.43,1.21,1.6,1.79c-0.15-0.19-0.31-0.39-0.46-0.58c0.15,0.21,0.3,0.43,0.45,0.65c0.18,0.27,0.35,0.55,0.51,0.84
					c0.16,0.28,0.3,0.58,0.46,0.86c0.27,0.59,0.22,0.47-0.14-0.37c0.09,0.24,0.17,0.48,0.25,0.73c0.11,0.37,0.19,0.75,0.28,1.12
					c0.33,1.28,0.03-1.38-0.03-0.05c-0.02,0.39-0.01,0.8-0.02,1.19c-0.01,1.34,0.37-1.32-0.01-0.04c-0.05,0.18-0.39,1.89-0.56,1.89
					c0.1-0.23,0.2-0.47,0.3-0.7c-0.11,0.24-0.22,0.48-0.35,0.72c-0.24,0.48-0.51,0.94-0.8,1.4c-0.22,0.34-0.46,0.67-0.68,1.01
					c-0.78,1.16,0.87-0.97-0.06,0.07c-0.54,0.6-1.06,1.22-1.64,1.79c-1.2,1.21-2.49,2.34-3.77,3.47c-2.82,2.49-5.43,5.04-7.56,8.16
					c-3.67,5.37-5.22,11.91-6.34,18.22c-0.55,3.08-1.02,6.18-1.67,9.24c-0.3,1.39-0.63,2.78-1.02,4.15
					c-0.21,0.74-0.44,1.48-0.7,2.21c-0.13,0.36-0.26,0.73-0.39,1.09c-0.09,0.24-0.19,0.48-0.28,0.72c0.36-0.84,0.41-0.96,0.15-0.37
					c-0.6,1.27-1.23,2.52-1.97,3.73c-0.4,0.65-0.82,1.29-1.26,1.92c-0.04,0.06-0.68,0.93-0.67,0.93c0.55-0.71,0.63-0.81,0.24-0.3
					c-0.16,0.2-0.32,0.4-0.48,0.59c-0.9,1.08-1.86,2.12-2.87,3.11c-0.55,0.54-1.12,1.06-1.7,1.57c-0.29,0.26-0.58,0.51-0.88,0.75
					c-0.26,0.22-0.87,0.92-1.21,0.97c0.2-0.16,0.4-0.31,0.6-0.47c-0.21,0.16-0.41,0.31-0.62,0.46c-0.31,0.23-0.63,0.45-0.95,0.67
					c-0.53,0.37-1.07,0.73-1.62,1.07c-1.42,0.9-2.87,1.73-4.37,2.5c-0.63,0.32-1.28,0.63-1.92,0.93c-0.41,0.19-0.83,0.37-1.24,0.56
					c-1.41,0.64,1.2-0.46-0.24,0.1c-1.84,0.71-3.68,1.39-5.56,1.98c-3.48,1.09-7.03,1.95-10.61,2.66c-1.64,0.33-3.29,0.62-4.95,0.9
					c-0.9,0.15-1.8,0.29-2.7,0.43c-0.46,0.07-0.92,0.14-1.37,0.21c-0.34,0.05-2.32,0.52-0.78,0.12c-1.63,0.43-3.56,0.41-5.24,0.48
					c-0.95,0.04-1.9,0.06-2.86,0.03c-0.47-0.01-0.95-0.04-1.42-0.07c-0.32-0.02-0.63-0.05-0.94-0.08c-0.69-0.08-0.63-0.07,0.18,0.03
					c-1.48,0.06-3.35-0.71-4.73-1.21c-0.39-0.14-0.83-0.27-1.19-0.46c1.42,0.76,0.16,0.05-0.13-0.09c-0.84-0.4-1.65-0.84-2.46-1.3
					c-1.41-0.82-2.77-1.72-4.08-2.68c-0.22-0.16-0.8-0.46-0.93-0.7c0.2,0.15,0.4,0.31,0.6,0.46c-0.2-0.16-0.4-0.32-0.61-0.49
					c-0.6-0.49-1.19-0.99-1.77-1.51c-2.32-2.06-4.46-4.32-6.41-6.74c-0.08-0.1-0.16-0.2-0.24-0.3c-0.4-0.5-0.32-0.41,0.22,0.3
					c-0.15-0.03-0.6-0.8-0.69-0.93c-0.46-0.63-0.9-1.26-1.33-1.91c-0.86-1.29-1.67-2.62-2.43-3.97c-0.75-1.36-1.45-2.74-2.1-4.16
					c-0.03-0.08-0.44-1.07-0.47-1.06c0.1,0.24,0.2,0.48,0.3,0.72c-0.1-0.24-0.2-0.48-0.29-0.72c-0.29-0.72-0.56-1.45-0.82-2.18
					c-1.03-2.93-1.82-5.94-2.35-8.99c-0.07-0.38-0.12-0.77-0.19-1.15c-0.23-1.37,0.16,1.44,0.01,0.06
					c-0.08-0.77-0.17-1.54-0.23-2.32c-0.14-1.79-0.19-3.58-0.12-5.37c0.03-0.91,0.09-1.81,0.18-2.71c0.04-0.42-0.07-1.71,0.01-0.2
					c-0.02-0.41,0.15-0.94,0.23-1.33c0.34-1.78,0.87-3.48,1.47-5.19c0.5-1.44-0.53,1.1-0.01,0c0.14-0.29,0.27-0.58,0.41-0.87
					c0.28-0.57,0.58-1.14,0.9-1.69c0.64-1.11,1.36-2.15,2.1-3.19c0.7-0.98-0.92,1.14-0.16,0.2c0.2-0.25,0.4-0.5,0.6-0.74
					c0.41-0.49,0.83-0.98,1.26-1.45c0.87-0.96,1.78-1.88,2.71-2.77c1.9-1.82,3.9-3.53,5.94-5.2c4.07-3.35,8.29-6.55,12.08-10.23
					c3.93-3.82,7.47-8.23,9.64-13.29c1.41-3.3,2.24-6.71,3.33-10.11c0.22-0.7,0.48-1.38,0.73-2.06c0.3-0.81-0.67,1.34-0.06,0.16
					c0.18-0.35,0.35-0.71,0.54-1.05c0.19-0.34,0.39-0.68,0.61-1.01c0.07-0.11,0.15-0.22,0.22-0.33c0.39-0.53,0.31-0.43-0.24,0.29
					c0.22,0.01,1.52-1.54,1.76-1.77c0.94-0.85-1.16,0.77-0.09,0.08c0.2-0.13,0.39-0.26,0.59-0.39c0.61-0.38,1.24-0.69,1.87-1.01
					c1.15-0.59-1.34,0.47-0.11,0.04c0.34-0.12,0.68-0.25,1.02-0.37c0.81-0.27,1.64-0.49,2.47-0.69c0.6-0.14,1.21-0.26,1.82-0.37
					c0.35-0.06,0.78-0.06,1.11-0.18c-1.47,0.5-0.69,0.09-0.11,0.02c1.61-0.18,3.22-0.28,4.84-0.35c3.27-0.14,6.55-0.16,9.81,0.08
					c0.68,0.05,1.36,0.11,2.03,0.18c0.14,0.02,0.27,0.03,0.4,0.05c0.67,0.08,0.54,0.06-0.39-0.06c0.12-0.09,1.04,0.16,1.2,0.19
					c1.65,0.28,3.29,0.65,4.89,1.13c0.7,0.21,1.39,0.45,2.07,0.7c0.12,0.05,0.25,0.1,0.37,0.14c0.6,0.24,0.49,0.19-0.33-0.15
					c0.14-0.06,0.93,0.43,1.08,0.5c1.44,0.71,2.8,1.54,4.09,2.48c2.54,1.86,6.8,0.51,8.21-2.15
					C1081.83,764.78,1080.75,761.67,1078.03,759.69L1078.03,759.69z"/>
			</g>
		</g>
		<g>
			<path class="st20" d="M1071.86,774.95c-4.22-2.29-9,1.49-12.67,4.58c-7.85,6.62-17.23,11.1-26.28,15.96
				c-9.05,4.86-18.06,10.34-24.47,18.36c-6.41,8.02-9.82,19.12-6.39,28.79c1.61,4.53,4.57,8.45,7.68,12.13
				c6.44,7.64,15.39,15.18,25.23,13.42c3.67-0.66,6.98-2.57,10.15-4.53c5.94-3.66,11.73-7.57,17.34-11.72
				c2.43-1.8,4.89-3.71,6.37-6.35c2.8-4.98,1.47-11.19,2.46-16.82c1.59-8.95,8.94-15.83,11.6-24.52
				c3.27-10.68-1.85-23.32-11.64-28.71"/>
		</g>
		<g>
			<path class="st21" d="M1063.97,804.57c-1.58-2.48-5.24-2.89-7.89-1.62c-2.65,1.27-4.48,3.77-6.04,6.26
				c-1.56,2.49-3.02,5.14-5.29,7c-2.6,2.14-6.03,3.05-8.71,5.1c-2.49,1.91-4.15,4.67-5.75,7.37c-1.28,2.15-2.6,4.49-2.4,6.99
				c0.31,3.76,3.86,6.29,7.06,8.28c0.91,0.57,1.88,1.15,2.95,1.21c0.74,0.04,1.47-0.18,2.17-0.42c4.69-1.57,9.21-4.08,12.26-7.97
				c3.05-3.89,4.38-8.82,6.5-13.28c1.73-3.63,4.01-6.99,6.74-9.93c1.36-1.47,2.96-3.16,2.7-5.14c-0.27-2.11-2.46-3.33-4.39-4.22"/>
			<g>
				<path class="st22" d="M1067.86,802.3c-3.18-4.63-9.13-5.65-14.05-3.23c-4.7,2.31-6.99,7.14-9.79,11.26
					c-0.16,0.23-0.33,0.45-0.48,0.69c-0.38,0.59,0.41-0.44-0.06,0.08c-0.37,0.42-0.72,0.84-1.12,1.23c-0.2,0.19-0.42,0.37-0.62,0.56
					c-0.49,0.48,0.52-0.3-0.05,0.04c-0.52,0.3-1.01,0.66-1.54,0.95c-1.94,1.08-4.04,1.91-5.87,3.19c-4.15,2.9-7.24,7.54-9.35,12.09
					c-1.28,2.77-1.96,5.73-1.18,8.76c0.64,2.46,2.22,4.68,4.09,6.37c1.71,1.54,3.7,2.96,5.73,4.06c2.95,1.61,5.78,1.46,8.85,0.32
					c4.57-1.7,9.05-4.12,12.34-7.81c3.49-3.91,5.26-8.7,7.23-13.47c-0.29,0.69-0.01,0.02,0.04-0.1c0.17-0.39,0.34-0.78,0.52-1.16
					c0.27-0.58,0.56-1.16,0.85-1.73c0.63-1.21,1.33-2.38,2.08-3.52c0.36-0.54,0.73-1.07,1.11-1.59c0.06-0.08,0.6-0.79,0.3-0.4
					c-0.3,0.38,0.39-0.48,0.45-0.55c0.83-1,1.75-1.91,2.58-2.91c2.12-2.56,3.72-5.8,2.43-9.16c-1.1-2.89-3.47-4.7-6.19-5.98
					c-2.13-1-4.95-0.67-6.16,1.61c-1.05,1.99-0.66,5.09,1.61,6.16c0.74,0.34,1.44,0.72,2.13,1.15c0.72,0.45-0.46-0.42,0.15,0.14
					c0.57,0.52,0.02-0.02-0.08-0.17c0.31,0.47,0.07,0.06-0.03-0.22c0.1,0.3,0.05,0.68,0.01-0.19c0-0.09,0.24-0.76,0.05-0.3
					c-0.19,0.47,0.13-0.18,0.15-0.22c-0.1,0.23-0.24,0.44-0.36,0.65c-0.39,0.71,0.32-0.3-0.22,0.32c-0.34,0.39-0.69,0.77-1.03,1.14
					c-2.87,3.13-5.38,6.64-7.25,10.46c-0.98,2.01-1.8,4.09-2.65,6.16c-0.11,0.26-0.22,0.53-0.32,0.79c-0.01,0.03-0.28,0.68-0.1,0.25
					c0.2-0.47-0.15,0.34-0.19,0.44c-0.09,0.19-0.17,0.39-0.26,0.58c-0.41,0.9-0.84,1.78-1.32,2.64c-0.48,0.86-1,1.7-1.59,2.48
					c0.46-0.61-0.31,0.33-0.46,0.49c-0.36,0.39-0.73,0.77-1.12,1.13c-0.29,0.27-0.61,0.51-0.9,0.79c-0.49,0.47,0.53-0.37-0.03,0.04
					c-0.16,0.12-0.32,0.24-0.48,0.35c-0.82,0.58-1.68,1.1-2.56,1.58c-0.77,0.42-1.55,0.79-2.35,1.15c0.77-0.35-0.36,0.14-0.6,0.23
					c-0.51,0.19-1.02,0.38-1.54,0.54c-0.21,0.07-0.43,0.13-0.64,0.19c0.42-0.11,0.39,0.26-0.12,0c0.08,0.04,0.73,0.01,0.22-0.03
					c-0.44-0.04,0.02-0.03,0.15,0.06c-0.81-0.52-1.65-0.98-2.45-1.52c-0.37-0.25-0.72-0.51-1.08-0.76c0.63,0.43-0.02-0.02-0.27-0.23
					c-0.33-0.28-0.64-0.57-0.95-0.88c-0.13-0.13-0.25-0.27-0.38-0.4c-0.75-0.78,0.22,0.44-0.08-0.07c-0.2-0.35-0.41-0.72-0.63-1.06
					c0.04,0.06,0.23,0.74,0.12,0.27c-0.04-0.16-0.1-0.34-0.15-0.5c-0.24-0.75-0.02-0.07-0.02,0.14c-0.01-0.2,0.02-0.46-0.02-0.66
					c-0.08-0.42-0.03-0.06-0.06,0.12c0.05-0.36,0.16-0.71,0.26-1.06c0.06-0.21,0.14-0.42,0.21-0.62c-0.23,0.64,0.02-0.04,0.08-0.15
					c0.21-0.4,0.41-0.8,0.63-1.19c0.52-0.93,1.07-1.84,1.63-2.74c0.47-0.76,0.96-1.5,1.47-2.23c0.5-0.71,0.16-0.21,0.04-0.07
					c0.13-0.16,0.26-0.31,0.39-0.47c0.35-0.41,0.72-0.81,1.12-1.18c0.18-0.17,1.15-0.93,0.49-0.47c0.38-0.27,0.78-0.53,1.18-0.77
					c0.81-0.48,1.66-0.91,2.51-1.33c1.94-0.97,3.75-1.97,5.44-3.34c1.92-1.55,3.39-3.64,4.7-5.71c0.56-0.88,1.1-1.79,1.66-2.67
					c0.29-0.45,0.59-0.9,0.9-1.35c0.16-0.22,0.31-0.44,0.48-0.66c-0.28,0.36-0.19,0.23,0.05-0.03c0.36-0.4,0.71-0.79,1.1-1.16
					c0.14-0.14,0.3-0.26,0.44-0.4c0.34-0.33-0.5,0.27,0.2-0.13c0.17-0.1,0.34-0.21,0.51-0.31c0.17-0.1,0.35-0.19,0.53-0.28
					c-0.16,0.07-0.31,0.13-0.47,0.2c0.1-0.13,1.15-0.39,1.28-0.34c0.04,0.01-0.91-0.01-0.37,0.07c0.2,0.03,0.46-0.01,0.66-0.01
					c0.24,0,0.79,0.21,0.22,0c-0.61-0.22,0.06,0.04,0.2,0.08c0.19,0.06,0.73,0.37,0.21,0.05c-0.57-0.35,0.1,0.07,0.17,0.13
					c0.35,0.32-0.22-0.24-0.28-0.24c0.18-0.02,0.86,1.13,0.12,0.06c1.33,1.94,4.01,3,6.16,1.61
					C1068.17,807.22,1069.29,804.38,1067.86,802.3L1067.86,802.3z"/>
			</g>
		</g>
	</g>
	<path class="st28" d="M1086.31,799.68c0,0,18,67,53,89C1139.31,888.68,1160.31,827.68,1086.31,799.68z"/>
	<path class="st29" d="M1167.31,819.68c0,0-38,23-32,69C1135.31,888.68,1179.31,889.68,1167.31,819.68z"/>
</g>
<linearGradient id="SVGID_8_" gradientUnits="userSpaceOnUse" x1="812.4588" y1="720.1716" x2="1175.8381" y2="510.5297">
	<stop  offset="0" style="stop-color:#EB76A1"/>
	<stop  offset="0.2851" style="stop-color:#F09FBE"/>
	<stop  offset="0.7568" style="stop-color:#FAE3EC"/>
	<stop  offset="0.9797" style="stop-color:#FFFFFF"/>
</linearGradient>
<path class="st30" d="M986.47,864.1L986.47,864.1c-53.9,0-98-44.1-98-98V622.4h-77.3l77.4-149c0-53.9,44.1-98,98-98l0,0
	c53.9,0,98,44.1,98,98v292.7C1084.47,820,1040.37,864.1,986.47,864.1z"/>
<g>
	<path class="st31" d="M869.52,740.45h43c20,0,36.4-16.4,36.4-36.4l0,0c0-20-16.4-36.4-36.4-36.4h-43v30.7h45.6
		c3.1,0,5.7,2.6,5.7,5.7l0,0c0,3.1-2.6,5.7-5.7,5.7h-45.6V740.45L869.52,740.45z"/>
	<path class="st31" d="M851.32,683.05L851.32,683.05c0,8.4,6.9,15.3,15.3,15.3h15.3v-30.7h-15.3
		C858.22,667.65,851.32,674.55,851.32,683.05L851.32,683.05z"/>
	<path class="st31" d="M851.32,725.05L851.32,725.05c0,8.4,6.9,15.3,15.3,15.3h15.3v-30.7h-15.3
		C858.22,709.75,851.32,716.65,851.32,725.05L851.32,725.05z"/>
</g>
<path class="st32" d="M1175.97,476.4c-108.9,0-266.1,0-420.9,0c0-116.2,94.2-210.4,210.4-210.4S1175.97,360.2,1175.97,476.4z"/>
<path class="st31" d="M925.22,1680.58c-29.5,0-72.09,0-114.03,0c0-31.48,25.52-57,57-57S925.22,1649.1,925.22,1680.58z"/>
<path class="st31" d="M1030.22,1680.58c-29.5,0-72.09,0-114.03,0c0-31.48,25.52-57,57-57S1030.22,1649.1,1030.22,1680.58z"/>
<circle class="st33" cx="960.12" cy="502.05" r="52"/>
<circle class="st34" cx="960.12" cy="502.05" r="29"/>
<path class="st35" d="M387.75,726.53c0,0,68.85,127.06,67.46,224.47c-1.39,97.41-20.22,479.58-20.22,479.58l104.4,11.19
	c0,0-26.66-154.72-21.62-305.04s13.32-265.09,49.8-314.48c36.47-49.39,61.76-50.71,61.76-50.71l1.49-13.92
	c0,0-57.53,1.88-84.59,57.31c-27.06,55.43-32.53,68.93-32.53,68.93s-9.66,15.06-8.52-4.94c1.14-19.99,1.14-19.99,1.14-19.99
	l2.74-289.39l-38.78-4.16l-4.55,249.97c0,0-10.48,3.91-46.16-85.41L387.75,726.53z"/>
<path class="st36" d="M574.1,1686.6H412.14c-32.15,0-58.21-26.06-58.21-58.21v-277.04c0-32.15,26.06-58.21,58.21-58.21H574.1
	c32.15,0,58.21,26.06,58.21,58.21v277.04C632.31,1660.54,606.25,1686.6,574.1,1686.6z"/>
<path class="st37" d="M641.35,1345.6H326.28c-10.47,0-18.96-8.49-18.96-18.96v-39.08c0-10.47,8.49-18.96,18.96-18.96h315.08
	c10.47,0,18.96,8.49,18.96,18.96v39.08C660.31,1337.11,651.82,1345.6,641.35,1345.6z"/>
<g>
	<g>
		<path class="st38" d="M-978.57,1608.23c9.46-22.08,18.92-44.16,28.38-66.24c27.18-63.44,54.4-126.99,75.93-192.56
			c6.31-19.24,12.16-38.73,15-58.78c3.24-22.81,2.56-45.97,2.25-69.01c-0.96-70.97,1.65-141.99,7.83-212.69l0.36-11.28l-5.94,7.49
			c-16.1,25.6-32.2,51.19-48.3,76.79c-7.31,11.63-14.64,23.28-23.1,34.1c-8.34,10.68-17.81,20.6-24.42,32.43
			c-5.53,9.89-8.9,20.82-12.16,31.67c-20.36,67.85-37.89,136.89-44.99,207.38c-7.1,70.49-3.52,142.73,17.58,210.36
			c2.45,7.85,9.02,17.49,16.48,14.03"/>
	</g>
	<g>
		<path class="st38" d="M-715.21,822.56c-17.98,53.46-44.57,103.56-66.58,155.49c-22.02,51.93-39.7,107.1-38.29,163.49
			c0.51,20.23,3.47,40.37,3.21,60.6c-0.39,30.82-8.23,61-16.02,90.83c-17.58,67.31-36.93,137.85-85.48,187.68
			c-18.04,18.52-41.59,38.17-38.87,63.88c31.03-37.15,63.48-73.12,97.26-107.8c19.4-19.92,39.46-39.59,63.06-54.28
			c73.26-45.59,167.53-36.54,249.19-64.41c54.85-18.72,102.48-53.58,149.15-87.94c-59.89,3.27-119.61,9.68-178.83,19.2
			c-96.64,15.52-198.63,43.26-262.11,117.76c80.75-170.63,125.68-358.1,131.04-546.8"/>
	</g>
	<g>
		<path class="st38" d="M-968.29,1554.44c67.9-62.57,138.09-126.57,224.48-159.16c35.52-13.4,72.9-21.1,110.08-28.75
			c32.62-6.71,65.23-13.42,97.85-20.13c-37.38,39.98-83.43,71.8-134.05,92.61c-46.96,19.31-97.25,29.09-145.31,45.47
			c-53.21,18.13-103.64,44.38-149.01,77.58c-1.87,1.37-3.98,2.82-6.28,2.52c-2.29-0.3-4.06-3.49-2.29-4.99"/>
	</g>
</g>
<linearGradient id="SVGID_9_" gradientUnits="userSpaceOnUse" x1="4118.5776" y1="-2283.1565" x2="4302.2993" y2="-2293.5786" gradientTransform="matrix(6.123234e-17 -1 1 6.123234e-17 3276.3423 5201.8062)">
	<stop  offset="0.0618" style="stop-color:#F09FBE"/>
	<stop  offset="0.3704" style="stop-color:#FAE3EC"/>
	<stop  offset="0.9797" style="stop-color:#FFFFFF"/>
</linearGradient>
<path class="st39" d="M1148.31,1032.6L1148.31,1032.6c0,10.49-8.51,19-19,19h-278c-10.49,0-19-8.51-19-19l0,0c0-10.49,8.51-19,19-19
	h278C1139.81,1013.6,1148.31,1022.11,1148.31,1032.6z"/>
<linearGradient id="SVGID_10_" gradientUnits="userSpaceOnUse" x1="709.6214" y1="770.7241" x2="902.2714" y2="770.7241" gradientTransform="matrix(0.997 -0.0779 0.0779 0.997 -67.151 317.4477)">
	<stop  offset="0.0618" style="stop-color:#F09FBE"/>
	<stop  offset="0.8962" style="stop-color:#FAE3EC"/>
	<stop  offset="0.9797" style="stop-color:#FFFFFF"/>
</linearGradient>
<path class="st40" d="M711.97,1024.86c-4.54,0.03-8.24-3.63-8.27-8.16l0,0c-0.03-4.54,3.63-8.24,8.16-8.27
	c16.61-0.11,55.47-0.36,71.99-0.47c7.96-0.05,14.42-6.6,14.37-14.56l0,0c-0.05-7.96-6.6-14.42-14.56-14.37l-0.17,0l-32.53,0.21
	c-4.54,0.03-8.24-3.63-8.27-8.16c-0.03-4.54,3.63-8.24,8.16-8.27l32.53-0.21l24.99-0.16c33.9-0.22,61.81,27.33,62.03,61.23l0,0
	c0.22,33.9-27.33,61.81-61.23,62.03c-24.99,0.16-71.82,0.47-96.81,0.63c-4.54,0.03-8.24-3.63-8.27-8.16l0,0
	c-0.03-4.54,3.63-8.24,8.16-8.27c19.17-0.12,60.18-0.39,79.43-0.52c3.85-0.03,7.08-3.21,7.06-7.15l0,0
	c-0.03-3.94-3.21-7.08-7.15-7.06c-19,0.12-60.35,0.39-79.43,0.52c-4.54,0.03-8.24-3.63-8.27-8.16l0,0
	c-0.03-4.54,3.63-8.24,8.16-8.27c19-0.12,60.35-0.39,79.43-0.52c3.85-0.03,7.08-3.21,7.06-7.15l0,0c-0.03-3.85-3.21-7.08-7.15-7.06
	C772.32,1024.47,730.98,1024.74,711.97,1024.86L711.97,1024.86z"/>
<path class="st31" d="M1105.57,1680.58H972.18c-2.62,0-4.75-2.13-4.75-4.75v-10.5c0-2.62,2.13-4.75,4.75-4.75h133.38
	c2.62,0,4.75,2.13,4.75,4.75v10.5C1110.31,1678.45,1108.19,1680.58,1105.57,1680.58z"/>
<g>
	<g>
		<path class="st41" d="M396.03,610.7c47.16,0.6,94.33,1.21,141.49,1.81c3.25,0.04,6.7,0.03,9.48-1.66c2.74-1.67,4.33-4.67,5.8-7.53
			c12.48-24.42,25.32-50.88,21.34-78.01c-1.52-10.33-5.44-20.15-9.94-29.56c-4.65-9.73-10.26-19.51-19.16-25.59
			c-15-10.25-35.81-7.35-51.76,1.37c-5.93,3.24-11.73,7.3-18.45,8.01c-5.43,0.57-10.81-1.12-16.17-2.2
			c-23.72-4.76-52.42,6.33-58.92,29.63c-2.7,9.7-1.68,21.06-8.31,28.63c-3.75,4.28-9.42,6.58-12.98,11.02
			c-7.24,9.02-2.99,22.46,2.86,32.44c5.85,9.99,13.31,20.49,11.56,31.93"/>
	</g>
	<g>
		<path class="st42" d="M435.32,578.94c-1.45,2.51-0.6,5.86,1.32,8.04c1.92,2.17,4.68,3.39,7.42,4.34
			c16.53,5.74,34.61,3.95,52.02,2.08c4.33-0.46,8.8-0.97,12.56-3.18c6.69-3.92,9.4-12.08,11.46-19.56
			c2.16-7.87,4.2-15.94,3.75-24.09c-0.72-12.89-7.86-25-18-32.99s-23.03-12.07-35.92-12.81c-8.19-0.47-17.78,1.15-21.78,8.31
			c-2.19,3.92-2.18,8.66-3.41,12.98c-2.16,7.55-7.97,13.4-12.47,19.84c-4.49,6.45-7.78,15-4.24,22.02
			c2.37,4.71,7.69,8.89,6.23,13.95"/>
	</g>
	<g>
		<path class="st17" d="M447.7,569.42c-1.39,2.9-1.29,6.34-0.36,9.41c0.93,3.07,2.64,5.85,4.41,8.53c1.38,2.09,2.89,4.22,5.09,5.43
			c2.2,1.21,5.27,1.21,6.93-0.67c1.89-2.14,1.19-5.44,0.38-8.18c-1.82-6.21-3.56-12.72-2.36-19.08c0.35-1.82,0.93-3.62,1-5.47
			c0.07-1.86-0.49-3.87-1.99-4.96c-1.89-1.38-4.7-0.8-6.46,0.73s-2.71,3.8-3.47,6.01s-1.4,4.52-2.76,6.43"/>
	</g>
	<g>
		<path class="st17" d="M444.42,543.67c-0.84,1.46,0.89,3.31,2.57,3.25c1.68-0.06,3.08-1.26,4.32-2.4
			c6.26-5.73,12.51-11.46,18.77-17.19c1.16-1.07,2.43-2.41,2.19-3.97c-0.08-0.52-0.33-0.99-0.63-1.42c-1.87-2.64-5.67-3.33-8.77-2.4
			c-3.1,0.94-5.62,3.17-7.89,5.48c-5.02,5.13-9.4,11.17-11.17,18.13"/>
	</g>
	<g>
		<path class="st17" d="M467.24,541.24c0.3,11.36,0.6,22.72,0.89,34.08c0.05,1.8,0.47,4.08,2.23,4.46c0.63,0.14,1.29-0.04,1.87-0.31
			c2.11-0.99,3.33-3.2,4.27-5.33c2.9-6.6,4.33-13.84,4.16-21.04c-0.06-2.4-0.32-4.89-1.54-6.95c-2.17-3.69-6.92-5.14-11.18-4.78"/>
	</g>
	<g>
		<path class="st17" d="M477.54,517.14c7.96,8.2,11.32,19.91,12.23,31.3c0.27,3.39,0.46,7.07,2.69,9.64c0.36,0.41,0.8,0.8,1.34,0.87
			c0.78,0.09,1.46-0.52,1.96-1.13c3.84-4.7,3.64-11.4,3.24-17.46c-0.27-4.18-0.55-8.36-0.82-12.54c-0.1-1.49-0.2-3-0.7-4.41
			c-0.76-2.15-2.4-3.9-4.25-5.24c-4.7-3.42-11.35-4.45-16.42-1.61"/>
	</g>
</g>
<path class="st43" d="M966.7,1686.6H815.56c-3.6,0-6.51-2.92-6.51-6.51l0,0c0-3.6,2.92-6.51,6.51-6.51H966.7
	c3.6,0,6.51,2.92,6.51,6.51l0,0C973.21,1683.69,970.29,1686.6,966.7,1686.6z"/>
<path class="st43" d="M1108.92,1686.6H920.41c-3.6,0-6.51-2.92-6.51-6.51l0,0c0-3.6,2.92-6.51,6.51-6.51h188.52
	c3.6,0,6.51,2.92,6.51,6.51l0,0C1115.44,1683.69,1112.52,1686.6,1108.92,1686.6z"/>
<rect x="-1895.14" y="1843.07" class="st44" width="1440" height="2067.62"/>
<path class="st45" d="M647.68,1687.44H339.59c-6.98,0-12.64-5.66-12.64-12.64v-2.45c0-6.98,5.66-12.64,12.64-12.64h308.09
	c6.98,0,12.64,5.66,12.64,12.64v2.45C660.31,1681.78,654.66,1687.44,647.68,1687.44z"/>
<ellipse class="st46" cx="649.61" cy="1661.58" rx="26.64" ry="25.21"/>
<ellipse class="st46" cx="342.46" cy="1661.58" rx="26.64" ry="25.21"/>
<path class="st37" d="M-455.14,1425.62h113.1v237.8h-77.4v-174.8C-419.44,1463.22-433.44,1440.42-455.14,1425.62L-455.14,1425.62
	L-455.14,1425.62z"/>
<g>
	<g>
		<path class="st47" d="M1188.71,1895.15c1.93,0,1.93-3,0-3C1186.78,1892.15,1186.78,1895.15,1188.71,1895.15L1188.71,1895.15z"/>
	</g>
</g>
</svg>
